<svg width="16" height="15" xmlns="http://www.w3.org/2000/svg"><path d="M8.916.06c.775.001 1.176.007 1.533.018l.265.009.381.015c.623.013 1.24.128 1.822.341a3.79 3.79 0 012.194 2.138c.223.575.34 1.185.35 1.8.033.541.043.827.046 1.62v.322l.001.182v1.369a60.319 60.319 0 01-.02 1.904l-.01.258-.016.371a5.228 5.228 0 01-.35 1.776 3.796 3.796 0 01-2.194 2.138 5.64 5.64 0 01-1.821.34c-.589.033-.885.042-1.82.044H7.293a44.883 44.883 0 01-2.38-.044 5.61 5.61 0 01-1.822-.365 3.794 3.794 0 01-2.195-2.138 5.236 5.236 0 01-.349-1.776 30.814 30.814 0 01-.02-.37L.52 9.841a33.508 33.508 0 01-.019-1.233V6.48c.003-.756.009-1.147.02-1.495l.01-.258.016-.37a5.22 5.22 0 01.35-1.776A3.786 3.786 0 013.091.443a5.588 5.588 0 011.82-.34c.173-.01.32-.018.467-.023l.176-.007c.267-.008.56-.012 1.018-.013zm.318 1.285H7.266c-1.391.002-1.65.013-2.339.044a4.271 4.271 0 00-1.39.252 2.458 2.458 0 00-1.433 1.39 4 4 0 00-.259 1.37c-.033.582-.041.845-.043 1.74l-.001.54v1.574c.003.749.007 1.128.018 1.467l.01.251.016.364c.007.463.096.922.26 1.356.253.64.774 1.145 1.432 1.39.445.161.916.246 1.39.252.176.01.323.017.467.023l.172.007c.319.01.669.013 1.316.014h1.799c.904-.001 1.33-.006 1.705-.018l.258-.01.374-.016a4.25 4.25 0 001.392-.253 2.458 2.458 0 001.427-1.39c.166-.438.253-.902.259-1.37h.009l.016-.365.005-.168c.01-.307.013-.623.014-1.204v-1.92a53.632 53.632 0 00-.018-1.662l-.01-.251-.016-.365a4.033 4.033 0 00-.26-1.355 2.462 2.462 0 00-1.426-1.39 4.23 4.23 0 00-1.392-.253c-.175-.01-.322-.018-.465-.024l-.173-.006c-.29-.01-.605-.013-1.146-.014zM7.999 3.609c2.127 0 3.853 1.681 3.853 3.754 0 2.075-1.726 3.756-3.853 3.756-2.128 0-3.852-1.681-3.852-3.756 0-2.073 1.724-3.754 3.852-3.754zm0 1.317c-1.382 0-2.503 1.091-2.503 2.438 0 1.347 1.12 2.44 2.503 2.44s2.502-1.093 2.502-2.44-1.12-2.438-2.502-2.438zm4.006-2.33c.496 0 .898.392.898.875a.887.887 0 01-.898.875.887.887 0 01-.898-.875c0-.483.402-.875.898-.875z" fill="#FFF"/></svg>