<svg width="24" height="24" xmlns="http://www.w3.org/2000/svg"><path d="M13.17 5.653c-.333.102-.82.188-1.496.247.06-3.039 1.603-5.177 4.716-5.9.498 2.23-1.399 5.042-3.22 5.653zm6.5 3.896c.342-.504.889-1.067 1.639-1.699-1.195-1.479-2.578-2.374-4.56-2.374-1.897 0-3.494.975-4.662.975-.991 0-2.78-.862-4.528-.862-3.73 0-5.706 3.649-5.706 7.448C1.853 17.259 5.052 24 8.293 24c1.276 0 2.422-.965 3.939-.965 1.57 0 2.829.922 4.302.922 2.465 0 4.748-4.153 5.466-6.414-2.508-.766-4.522-4.833-2.33-7.994z" fill="#FFF"/></svg>