<svg width="24" height="24" xmlns="http://www.w3.org/2000/svg"><path d="M10.597 5.793c-.009-.065.09-.108.15-.136.08-.032.183-.047.258-.004.019.01.038.032.028.051-.018.056-.112.047-.164.075-.047.024-.084.08-.14.08-.047.005-.127-.019-.132-.066zm1.158-.014c.047.024.084.08.14.08.052 0 .132-.019.137-.07.009-.066-.09-.108-.15-.136-.08-.033-.183-.047-.258-.005-.019.01-.038.033-.028.052.014.06.108.051.16.08zm10.063 14.54c-.023.384-.304.646-.651.857-.699.422-1.748.74-2.386 1.51l-.122-.103.122.103c-.666.792-1.486 1.246-2.264 1.307-.773.061-1.5-.295-1.889-1.078v-.004a1.489 1.489 0 01-.117-.314c-1.008.056-1.884-.249-2.582-.193-1.032.057-1.678.305-2.264.31-.225.497-.67.825-1.214.947-.75.173-1.692 0-2.62-.488l.075-.14-.075.14c-.868-.46-1.969-.417-2.78-.586-.408-.084-.764-.234-.942-.576-.173-.342-.14-.811.103-1.486.08-.24.019-.595-.037-.975a3.687 3.687 0 01-.057-.553 1.2 1.2 0 01.132-.581c.21-.399.553-.567.867-.68.314-.112.6-.187.797-.389.243-.258.473-.675.778-.947-.122-.806.009-1.659.29-2.498.59-1.776 1.838-3.478 2.723-4.532.755-1.074.975-1.936 1.055-3.033C8.812 4.847 7.612-.009 12.411 0c3.792.005 3.577 4.003 3.553 6.154-.014 1.411.764 2.367 1.566 3.375.712.844 1.645 2.076 2.18 3.487.435 1.153.604 2.428.173 3.708a1.267 1.267 0 01.38.23c.309.262.407.67.491 1.05.09.379.17.735.338.923.52.58.745 1.007.726 1.392zM11.755 5.114c.169.042.417.112.61.206-.099-.572.21-1.102.552-1.078.418.014.652.726.427 1.28-.037.088-.131.159-.183.215.314.108.516.192.59.23.371-.446.507-1.228.202-1.894-.459-1.003-1.603-1.022-2.062.019-.15.337-.183.698-.136 1.022zm-2.165.88c.365-.266.323-.22.276-.257-.375-.323-.31-1.284.085-1.317.295-.023.506.501.45.919.145-.099.314-.17.478-.216.08-.905-.422-1.57-.896-1.57-.885 0-1.125 1.758-.393 2.442zm-.44.98c.07.23.285.493.688.718.366.215.563.539.937.703.122.051.268.089.45.098.863.052 1.27-.53 1.79-.698.55-.174.943-.516 1.065-.849.15-.398-.099-.689-.492-.853-.53-.23-.764-.243-1.06-.436-.482-.309-.88-.417-1.213-.417-.675 0-1.088.46-1.308.666-.024.023-.37.276-.661.492-.197.155-.263.347-.197.576zm-1.571 11.85l-.919-1.67c-.319-.43-.647-.693-1.026-.75-.361-.055-.59.067-.83.324-.225.24-.412.577-.67.844-.366.305-.436.29-.919.464-.295.103-.53.216-.694.53-.126.234-.098.571-.042.937.057.37.14.764.028 1.12v.01c-.234.642-.234 1.017-.121 1.237.37.722 2.184.286 3.585 1.027 1.472.768 3.403.801 3.53-.844.098-.961-1.477-2.297-1.922-3.23zm7.213 1.677c.15-.515.296-.998.32-1.359.037-.712.074-1.345.205-1.87.146-.59.436-1.083 1.003-1.28.108-.989.877-.989 1.795-.585.886.398 1.22.75 1.07 1.223.046 0 .093-.005.196 0 .244-.792-.67-1.313-1.439-1.631a3.541 3.541 0 00-.019-1.674c-.28-1.185-1.059-2.24-1.65-2.765-.107-.005-.098.09.122.305.544.501 1.74 2.306 1.092 3.98a1.864 1.864 0 00-.51-.067c-.249-1.363-.82-2.493-1.107-3.027-.539-1.003-1.382-3.061-1.743-4.486-.211.3-.581.558-1.045.703-.22.07-.455.258-.746.422-.651.375-1.406.412-1.987-.056-.211-.169-.375-.357-.59-.483a4.478 4.478 0 01-.291-.192c-.094 1.771-1.28 3.998-1.842 5.282a8.095 8.095 0 00-.647 2.883c-1.022-1.364-.277-3.108.122-3.862.445-.825.515-1.055.408-.975-.404.656-1.032 1.701-1.275 2.774-.127.558-.15 1.125.014 1.65.164.525.52 1.008 1.153 1.402 0 0 1.162.67 1.795 1.523.347.469.455.876.347 1.167-.117.314-.45.417-.783.417.225.281.483.61.675.919 1.762 1.204 3.853.736 5.357-.338zm6.065-1.354c-.468-.53-.337-1.552-.801-1.95-.323-.281-.637-.253-1.06-.239-.36.412-1.209.919-1.8.764-.538-.136-.843-.764-.88-1.383-.014.01-.033.014-.047.024-.333.183-.52.506-.642.989-.118.478-.16 1.101-.197 1.814-.033.553-.29 1.237-.464 1.903-.164.618-.272 1.18-.052 1.701.338.68.914.956 1.58.905.665-.052 1.425-.46 2.043-1.196 1.032-1.246 2.92-1.392 2.963-2.18.014-.238-.146-.608-.643-1.152zM9.53 6.97c.093.089.22.21.375.333.309.243.74.496 1.28.496.543 0 1.054-.276 1.49-.506.23-.122.51-.328.693-.487.183-.16.277-.296.146-.31-.131-.014-.122.122-.281.24-.207.15-.455.346-.652.459-.347.197-.914.478-1.401.478-.488 0-.877-.225-1.168-.455-.145-.117-.267-.234-.36-.323-.07-.066-.09-.216-.202-.23-.066-.005-.084.174.08.305z" fill="#362F8A"/></svg>