<svg width="33" height="25" xmlns="http://www.w3.org/2000/svg"><path d="M32.11 6.445a15.46 15.46 0 01-.04-.27l-.041.01C31.343 2.926 28.495.48 25.08.48c-3.925 0-7.108 3.23-7.108 7.214 0 3.984 3.183 7.214 7.108 7.214.352 0 .69-.055 1.026-.104-.109.372-.22.75-.4 1.09-.18.494-.462.922-.742 1.353-.233.466-.646.782-.949 1.181-.317.388-.75.646-1.093.969-.336.336-.777.505-1.127.742-.367.213-.686.449-1.027.56-.329.139-.616.257-.851.357-.477.2-.749.316-.749.316l.764 3.108s.345-.083.943-.23c.302-.078.67-.168 1.089-.275.428-.08.884-.3 1.393-.5.5-.23 1.083-.382 1.623-.749.544-.35 1.17-.641 1.723-1.11.536-.482 1.182-.9 1.659-1.512.52-.574 1.036-1.177 1.435-1.863.463-.654.777-1.373 1.11-2.083.3-.71.54-1.436.738-2.141a19.62 19.62 0 00.607-3.907 20.267 20.267 0 00-.044-2.8 11.428 11.428 0 00-.1-.865zm-17.374 0c-.027-.175-.04-.27-.04-.27l-.04.01C13.97 2.926 11.121.48 7.706.48 3.782.48.6 3.71.6 7.694c0 3.984 3.182 7.214 7.107 7.214.353 0 .69-.055 1.027-.104-.11.372-.221.75-.401 1.09-.18.494-.461.922-.741 1.353-.234.466-.646.782-.95 1.181-.317.388-.75.646-1.092.969-.337.336-.777.505-1.128.742-.366.213-.685.449-1.026.56-.329.139-.616.257-.852.357-.475.197-.747.312-.747.312l.765 3.109.943-.231c.301-.077.67-.167 1.088-.274.428-.08.884-.3 1.393-.5.5-.23 1.083-.382 1.623-.749.544-.35 1.17-.641 1.724-1.11.535-.482 1.18-.9 1.658-1.513.521-.574 1.036-1.176 1.436-1.862.462-.655.777-1.373 1.108-2.083.3-.71.542-1.436.74-2.142a19.62 19.62 0 00.606-3.906 20.267 20.267 0 00-.044-2.801 12.312 12.312 0 00-.101-.86z" opacity=".1"/></svg>