<svg width="17" height="14" xmlns="http://www.w3.org/2000/svg"><path d="M14.694 4.113c.011.142.011.283.011.424 0 4.325-3.378 9.308-9.55 9.308A9.665 9.665 0 010 12.375c.27.03.53.041.81.041 1.57 0 3.014-.516 4.168-1.397-1.476-.03-2.712-.972-3.139-2.268.208.03.416.05.634.05.301 0 .604-.04.884-.111C1.818 8.386.666 7.07.666 5.48v-.041c.447.243.966.394 1.516.415A3.246 3.246 0 01.686 3.13c0-.608.166-1.165.456-1.65C2.795 3.464 5.28 4.76 8.064 4.903a3.626 3.626 0 01-.083-.75C7.98 2.35 9.477.882 11.337.882c.967 0 1.84.395 2.453 1.033a6.737 6.737 0 002.13-.79c-.25.76-.78 1.397-1.476 1.803a6.867 6.867 0 001.933-.507 7.107 7.107 0 01-1.683 1.692z" fill="#FFF"/></svg>