<svg width="18" height="18" xmlns="http://www.w3.org/2000/svg"><path d="M16.217 4.287a8.174 8.174 0 00-3.034-2.956A8.328 8.328 0 009 .242c-1.51 0-2.905.363-4.183 1.089a8.172 8.172 0 00-3.034 2.956A7.803 7.803 0 00.667 8.363c0 1.473.371 2.832 1.116 4.077a8.168 8.168 0 003.035 2.956A8.328 8.328 0 009 16.485c1.51 0 2.905-.363 4.183-1.089a8.174 8.174 0 003.035-2.956 7.802 7.802 0 001.115-4.077 7.795 7.795 0 00-1.116-4.076zM9 1.59c1.667 0 3.143.52 4.433 1.559-.766.953-1.905 1.738-3.416 2.355-.835-1.472-1.74-2.702-2.718-3.687A6.587 6.587 0 019 1.59zM3.592 4.14A6.73 6.73 0 015.85 2.338c1.01.975 1.937 2.192 2.783 3.654-1.666.487-3.428.731-5.284.731-.477 0-.838-.01-1.083-.032a6.878 6.878 0 011.325-2.55zM2.05 8.363c0-.043.003-.097.008-.162a1.82 1.82 0 00.009-.162c.211.011.534.016.967.016 2.222 0 4.289-.298 6.2-.893.155.302.317.644.483 1.023-1.1.238-2.229.817-3.384 1.738-1.156.92-2 1.89-2.533 2.907-1.167-1.289-1.75-2.777-1.75-4.467zM9 15.137a6.859 6.859 0 01-4.25-1.429c.5-.964 1.27-1.886 2.308-2.762 1.039-.877 2.07-1.424 3.092-1.64a23.402 23.402 0 011.3 5.376 6.962 6.962 0 01-2.45.455zm5.9-3.216a6.87 6.87 0 01-2.15 2.128 22.79 22.79 0 00-1.15-4.938 30.62 30.62 0 012.084-.082c.666 0 1.405.028 2.216.082a6.467 6.467 0 01-1 2.81zM13.867 7.86c-.967 0-1.861.038-2.684.114-.211-.53-.4-.97-.566-1.316 1.721-.736 2.943-1.63 3.666-2.68 1 1.148 1.545 2.458 1.633 3.93a42.739 42.739 0 00-2.05-.048z" fill="#FFF"/></svg>