<?xml version="1.0" encoding="UTF-8"?>
<svg width="16px" height="15px" viewBox="0 0 16 15" version="1.1" xmlns="http://www.w3.org/2000/svg" xmlns:xlink="http://www.w3.org/1999/xlink">
    <title>Combined Shape</title>
    <g id="Symbols" stroke="none" stroke-width="1" fill="none" fill-rule="evenodd">
        <g id="Elements/Footer" transform="translate(-1023.000000, -339.000000)" fill="#FFFFFF" fill-rule="nonzero">
            <g id="Footer" transform="translate(0.000000, -0.000000)">
                <g id="Group-23" transform="translate(-11.000000, 322.000000)">
                    <g id="Group" transform="translate(1027.000000, 9.745391)">
                        <g id="Group-16" transform="translate(7.501912, 7.313554)">
                            <path d="M8.41382414,0.000510617783 C9.18914263,0.00250983659 9.58996288,0.00785390223 9.94708131,0.0186189266 L10.2118947,0.0277415638 C10.3305422,0.0322766507 10.4535226,0.0374717361 10.5930879,0.043403713 C11.2164212,0.0563975673 11.8322545,0.170905908 12.4147545,0.384492387 C13.4222545,0.763750508 14.2180879,1.5401333 14.6089212,2.52198141 C14.8322545,3.09695946 14.9489212,3.7068585 14.9597545,4.32244234 C14.9922183,4.86309967 15.0020986,5.14948029 15.0051056,5.94162909 L15.0059418,6.26387723 C15.0060376,6.32203139 15.0061144,6.38253233 15.0061757,6.44556559 L15.0061661,7.81506291 C15.0049541,8.84935654 14.9992718,9.31346272 14.9859242,9.71929946 L14.9762563,9.97720469 C14.9714622,10.0927391 14.9659864,10.2124717 14.9597545,10.3483423 C14.9472545,10.9558049 14.8297545,11.5551465 14.6105879,12.1236276 C14.2197545,13.1054757 13.4239212,13.8810464 12.4164212,14.2619287 C11.8330879,14.4747031 11.2172545,14.5900236 10.5947545,14.6022053 C10.0065299,14.6352196 9.71058313,14.643832 8.77447933,14.6460787 L6.79250801,14.646304 C5.39245459,14.6437169 5.10924728,14.6318652 4.41142119,14.6022053 C3.78642119,14.5827145 3.17058786,14.4576487 2.59058786,14.2367531 C1.58225453,13.8566829 0.786421194,13.0803001 0.395587861,12.0992641 C0.176421194,11.5299709 0.0589211939,10.9306293 0.0464211939,10.3231667 C0.0383052519,10.1880023 0.0316007781,10.0687057 0.0260622997,9.95341398 L0.0185983946,9.78199712 C0.00640530396,9.46780238 0.00210186022,9.13903775 0.000582997726,8.54899227 L0.000812032547,6.42069436 C0.0030015616,5.66483988 0.00881071751,5.27416961 0.0202515,4.92630955 L0.0299194543,4.66840431 C0.0347135695,4.55286986 0.0401893099,4.43313727 0.0464211939,4.29726675 C0.0589211939,3.68980406 0.176421194,3.09046254 0.395587861,2.52198141 C0.785587861,1.5401333 1.58142119,0.763750508 2.58975453,0.384492387 C3.17225453,0.170093792 3.78808786,0.0555854514 4.40975453,0.043403713 C4.58276177,0.0338701786 4.73048547,0.0264091517 4.87664927,0.0205700872 L5.0528154,0.0143129168 C5.32049642,0.00600846949 5.61386928,0.00237527378 6.07129038,0.000785750659 Z M8.73165174,1.28592187 L6.76376627,1.28566055 C5.37284684,1.2880995 5.1147183,1.29942921 4.42558786,1.32979528 C3.95142119,1.33629221 3.47975453,1.42156438 3.03475453,1.58236333 C2.37725453,1.82762233 1.85642119,2.33194629 1.60225453,2.97270573 C1.43558786,3.41206043 1.34892119,3.87496649 1.34308786,4.34274524 C1.31044293,4.92439677 1.30192687,5.18660581 1.29970528,6.08299305 L1.2990192,6.62204023 C1.29898653,6.68968214 1.29896475,6.76010074 1.29895023,6.83349013 L1.29897003,7.55927517 C1.29900311,7.63882248 1.29905352,7.71523172 1.29912283,7.78869314 L1.29977816,8.19560945 C1.3015929,8.94478146 1.30658345,9.32425177 1.31747192,9.66273809 L1.32678666,9.91405456 C1.33145585,10.026901 1.33685598,10.1443246 1.34308786,10.2785003 C1.35058786,10.7414063 1.43892119,11.2002518 1.60225453,11.6339217 C1.85642119,12.273869 2.37725453,12.7790051 3.03475453,13.023452 C3.47975453,13.1850631 3.95142119,13.2703352 4.42558786,13.27602 C4.60095018,13.2857301 4.74799649,13.2933293 4.89162338,13.2992765 L5.0639277,13.3056496 C5.38265226,13.3159874 5.73302656,13.319218 6.38014938,13.3202275 L8.1788277,13.3201908 C9.08266801,13.3187018 9.50829772,13.3136144 9.88457152,13.3017024 L10.1424539,13.2923256 C10.2582485,13.2876384 10.37874,13.2822345 10.5164212,13.27602 C10.9922545,13.2695231 11.4622545,13.1850631 11.9080879,13.023452 C12.5630879,12.778193 13.0805879,12.2730569 13.3347545,11.6339217 C13.5014212,11.194567 13.5880879,10.7308488 13.5939212,10.2630701 L13.5939212,10.2638822 L13.6030879,10.2638822 C13.6093197,10.1288591 13.6144678,10.0108828 13.6187206,9.89770157 L13.6244518,9.72999467 C13.6338143,9.42350999 13.6371188,9.10696208 13.638285,8.52555545 L13.6384145,6.60677336 C13.6368946,5.7256949 13.631717,5.31103488 13.6197217,4.94427108 L13.6102892,4.69286631 C13.6055784,4.57995984 13.6001531,4.46244406 13.5939212,4.32812715 C13.5864212,3.8652211 13.4980879,3.40637562 13.3347545,2.97270573 C13.0805879,2.33357053 12.5630879,1.82843444 11.9080879,1.58236333 C11.4622545,1.42075226 10.9922545,1.3354801 10.5164212,1.32979528 C10.34124,1.3200852 10.1942961,1.31248601 10.0507271,1.30653881 L9.87847306,1.30016577 C9.58877894,1.29076773 9.27280472,1.28724347 8.73165174,1.28592187 Z M7.49725453,3.55012013 C9.62392119,3.55012013 11.3497545,5.23120003 11.3497545,7.3045319 C11.3497545,9.37867588 9.62392119,11.0597558 7.49725453,11.0597558 C5.36892119,11.0597558 3.64475453,9.37867588 3.64475453,7.3045319 C3.64475453,5.23120003 5.36892119,3.55012013 7.49725453,3.55012013 Z M7.49725453,4.86655999 C6.11475453,4.86655999 4.99392119,5.95804375 4.99392119,7.30534401 C4.99392119,8.65183216 6.11475453,9.74412803 7.49725453,9.74412803 C8.87975453,9.74412803 9.99892119,8.65183216 9.99892119,7.30534401 C9.99892119,5.95804375 8.87975453,4.86655999 7.49725453,4.86655999 Z M11.5030879,2.5365995 C11.9992237,2.5365995 12.4014212,2.92855671 12.4014212,3.41206043 C12.4014212,3.89556415 11.9992237,4.28752136 11.5030879,4.28752136 C11.0069521,4.28752136 10.6047545,3.89556415 10.6047545,3.41206043 C10.6047545,2.92855671 11.0069521,2.5365995 11.5030879,2.5365995 Z" id="Combined-Shape"></path>
                        </g>
                    </g>
                </g>
            </g>
        </g>
    </g>
</svg>