<?xml version="1.0" encoding="UTF-8"?>
<svg width="24px" height="24px" viewBox="0 0 24 24" version="1.1" xmlns="http://www.w3.org/2000/svg" xmlns:xlink="http://www.w3.org/1999/xlink">
    <title>Icons/basic-masonry</title>
    <g id="Icons/basic-masonry" stroke="none" stroke-width="1" fill="none" fill-rule="evenodd">
        <g id="bxs-dashboard" transform="translate(3.000000, 3.000000)" fill="#FFFFFF">
            <path d="M1,10 L7,10 C7.552,10 8,9.553 8,9 L8,1 C8,0.447 7.552,0 7,0 L1,0 C0.448,0 0,0.447 0,1 L0,9 C0,9.553 0.448,10 1,10 Z" id="Path"></path>
            <path d="M0,17 C0,17.553 0.448,18 1,18 L7,18 C7.552,18 8,17.553 8,17 L8,13 C8,12.447 7.552,12 7,12 L1,12 C0.448,12 0,12.447 0,13 L0,17 Z" id="Path" opacity="0.5"></path>
            <path d="M10,17 C10,17.553 10.447,18 11,18 L17,18 C17.553,18 18,17.553 18,17 L18,10 C18,9.447 17.553,9 17,9 L11,9 C10.447,9 10,9.447 10,10 L10,17 Z" id="Path"></path>
            <path d="M11,7 L17,7 C17.553,7 18,6.553 18,6 L18,1 C18,0.447 17.553,0 17,0 L11,0 C10.447,0 10,0.447 10,1 L10,6 C10,6.553 10.447,7 11,7 Z" id="Path" opacity="0.5"></path>
        </g>
    </g>
</svg>