<?xml version="1.0" encoding="UTF-8"?>
<svg width="24px" height="24px" viewBox="0 0 24 24" version="1.1" xmlns="http://www.w3.org/2000/svg" xmlns:xlink="http://www.w3.org/1999/xlink">
    <title>Icons/label-plus Copy 2</title>
    <g id="Icons/label-plus-Copy-2" stroke="none" stroke-width="1" fill="none" fill-rule="evenodd">
        <g id="ios-share-24px">
            <polygon id="Path" points="0 0 24 0 24 24 0 24"></polygon>
            <path d="M16,5 L14.58,6.42 L12.99,4.83 L12.99,16 L11.01,16 L11.01,4.83 L9.42,6.42 L8,5 L12,1 L16,5 Z M20,10 L20,21 C20,22.1 19.1,23 18,23 L6,23 C4.89,23 4,22.1 4,21 L4,10 C4,8.89 4.89,8 6,8 L9,8 L9,10 L6,10 L6,21 L18,21 L18,10 L15,10 L15,8 L18,8 C19.1,8 20,8.89 20,10 Z" id="Shape" fill="#64648C" fill-rule="nonzero"></path>
        </g>
    </g>
</svg>