<?xml version="1.0" encoding="UTF-8"?>
<svg width="24px" height="24px" viewBox="0 0 24 24" version="1.1" xmlns="http://www.w3.org/2000/svg" xmlns:xlink="http://www.w3.org/1999/xlink">
    <title>Icons/basic-shape</title>
    <g id="Icons/basic-shape" stroke="none" stroke-width="1" fill="none" fill-rule="evenodd">
        <g id="bxs-shapes" transform="translate(2.000000, 2.000000)" fill="#FFFFFF">
            <path d="M15.867,0.467625075 C15.512,-0.156374925 14.486,-0.155374925 14.131,0.467625075 L10.132,7.46762508 C9.955,7.77762508 9.956,8.15762508 10.135,8.46562508 C10.314,8.77362508 10.644,8.96362508 10.9999958,8.96362508 L18.9999958,8.96362508 C19.356,8.96362508 19.686,8.77362508 19.865,8.46562508 C20.044,8.15662508 20.045,7.77762508 19.868,7.46762508 L15.867,0.467625075 Z" id="Path"></path>
            <path d="M1,19.9636251 L8,19.9636251 C8.553,19.9636251 9,19.5166251 9,18.9636251 L9,11.9636251 C9,11.4106251 8.553,10.9636251 8,10.9636251 L1,10.9636251 C0.447,10.9636251 0,11.4106251 0,11.9636251 L0,18.9636251 C0,19.5166251 0.447,19.9636251 1,19.9636251 Z" id="Path"></path>
            <path d="M15.5,10.9636251 C13.019,10.9636251 11,12.9826251 11,15.4636251 C11,17.9446251 13.019,19.9636251 15.5,19.9636251 C17.981,19.9636251 20,17.9446251 20,15.4636251 C20,12.9826251 17.981,10.9636251 15.5,10.9636251 Z" id="Path" opacity="0.5"></path>
        </g>
    </g>
</svg>