<?xml version="1.0" encoding="UTF-8"?>
<svg width="24px" height="24px" viewBox="0 0 24 24" version="1.1" xmlns="http://www.w3.org/2000/svg" xmlns:xlink="http://www.w3.org/1999/xlink">
    <title>Icons/basic-pie</title>
    <g id="Icons/basic-pie" stroke="none" stroke-width="1" fill="none" fill-rule="evenodd">
        <g id="bxs-doughnut-chart" transform="translate(2.000000, 2.000000)" fill="#FFFFFF">
            <path d="M10.949,4 C13.456,4.423 15.526,6.493 15.949,9 L19.949,9 C19.478,4.283 15.666,0.471 10.949,0 L10.949,4 Z" id="Path" opacity="0.5"></path>
            <path d="M15.949,11 C15.471,13.833 12.967,15.949 10,15.949 C6.691,15.949 4,13.258 4,9.949 C4,6.982 6.116,4.478 8.949,4 L8.949,0 C3.903,0.504 0,4.773 0,9.949 C0,15.463 4.486,19.949 10,19.949 C15.176,19.949 19.445,16.046 19.949,11 L15.949,11 Z" id="Path"></path>
        </g>
    </g>
</svg>