<?xml version="1.0" encoding="UTF-8"?>
<svg width="24px" height="24px" viewBox="0 0 24 24" version="1.1" xmlns="http://www.w3.org/2000/svg" xmlns:xlink="http://www.w3.org/1999/xlink">
    <title>Group 2</title>
    <g id="🎨-UI" stroke="none" stroke-width="1" fill="none" fill-rule="evenodd">
        <g id="Contact-Us" transform="translate(-224.000000, -618.000000)">
            <g id="Group-25" transform="translate(140.000000, 200.000000)">
                <g id="Group-24" transform="translate(64.000000, 72.000000)">
                    <g id="Group-19" transform="translate(0.000000, 330.000000)">
                        <g id="Group-2" transform="translate(20.000000, 16.000000)">
                            <rect id="Rectangle-Copy-3" fill="#D8D8D8" opacity="0" x="0" y="0" width="24" height="24"></rect>
                            <path d="M12,2 C7.589,2 3.99991856,5.589 3.99991856,9.995 C3.971,16.44 11.696,21.784 12,22 C12,22 20.029,16.44 20.0000784,10 C20.0000784,5.589 16.411,2 12,2 Z M12,14 C9.79,14 8,12.21 8,10 C8,7.79 9.79,6 12,6 C14.21,6 16,7.79 16,10 C16,12.21 14.21,14 12,14 Z" id="Shape" fill="#362F8A"></path>
                        </g>
                    </g>
                </g>
            </g>
        </g>
    </g>
</svg>