<?xml version="1.0" encoding="UTF-8"?>
<svg width="24px" height="24px" viewBox="0 0 24 24" version="1.1" xmlns="http://www.w3.org/2000/svg" xmlns:xlink="http://www.w3.org/1999/xlink">
    <title>Icons/basic-layer</title>
    <g id="Icons/basic-layer" stroke="none" stroke-width="1" fill="none" fill-rule="evenodd">
        <g id="bxs-layer" transform="translate(2.000000, 2.000000)" fill="#FFFFFF">
            <path d="M19.4840038,5.1245 L10.4620038,0.1245 C10.1610038,-0.0415 9.79500381,-0.0415 9.49400381,0.1245 L0.516003808,5.0845 C0.198003808,5.2605 0.00100380833,5.5945 1.77635684e-15,5.9575 C-0.000996191666,6.3195 0.195003808,6.6555 0.513003808,6.8325 L9.53500381,11.8725 C9.68700381,11.9575 9.85400381,11.9995 10.0220038,11.9995 C10.1900038,11.9995 10.3570038,11.9575 10.5080038,11.8735 L19.4860038,6.8735 C19.8040038,6.6965 20,6.3615 20,5.9985 C20,5.6355 19.8030038,5.3015 19.4840038,5.1245 Z" id="Path"></path>
            <path d="M10.0000038,13.8555 L1.48500381,9.1255 L0.514003808,10.8735 L9.51400381,15.8735 C9.66500381,15.9575 9.83300381,15.9995 10.0000038,15.9995 C10.1670038,15.9995 10.3350038,15.9575 10.4850038,15.8735 L19.4850038,10.8735 L18.5140038,9.1255 L10.0000038,13.8555 Z" id="Path" opacity="0.5"></path>
            <path d="M10.0000038,17.8555 L1.48500381,13.1255 L0.514003808,14.8735 L9.51400381,19.8735 C9.66500381,19.9575 9.83300381,19.9995 10.0000038,19.9995 C10.1670038,19.9995 10.3350038,19.9575 10.4850038,19.8735 L19.4850038,14.8735 L18.5140038,13.1255 L10.0000038,17.8555 Z" id="Path" opacity="0.5"></path>
        </g>
    </g>
</svg>