<?xml version="1.0" encoding="UTF-8"?>
<svg width="33px" height="25px" viewBox="0 0 33 25" version="1.1" xmlns="http://www.w3.org/2000/svg" xmlns:xlink="http://www.w3.org/1999/xlink">
    <title>Group 6</title>
    <g id="🎨-UI" stroke="none" stroke-width="1" fill="none" fill-rule="evenodd" opacity="0.100000001">
        <g id="Homepage" transform="translate(-478.000000, -3605.000000)" fill="#000000" fill-rule="nonzero">
            <g id="Group-23" transform="translate(142.000000, 3366.000000)">
                <g id="Group-24" transform="translate(0.000000, 215.000000)">
                    <g id="Group-6" transform="translate(336.000000, 24.000000)">
                        <g id="bxs-quote-alt-right" transform="translate(0.600000, 0.480000)">
                            <path d="M31.5090657,5.96513259 C31.4822159,5.79039476 31.4695806,5.6958119 31.4695806,5.6958119 L31.4285162,5.7054305 C30.7430558,2.44632957 27.8953944,0 24.4807277,0 C20.5559143,0 17.3734197,3.23024514 17.3734197,7.21394696 C17.3734197,11.1976488 20.5559143,14.4278939 24.4807277,14.4278939 C24.8329343,14.4278939 25.1709263,14.3733886 25.5073389,14.3236925 C25.3983602,14.6956115 25.2862226,15.073943 25.1061708,15.4138 C24.926119,15.9075546 24.6449855,16.3355821 24.3654314,16.7668158 C24.1316799,17.2333177 23.7194561,17.5491283 23.4162109,17.9483 C23.0987512,18.3362501 22.6659951,18.5943491 22.3232649,18.916572 C21.9868523,19.2532229 21.5461992,19.4215483 21.195572,19.658807 C20.8291508,19.8720192 20.5101116,20.1076748 20.1689608,20.2198918 C19.8404453,20.3577583 19.5529941,20.4763877 19.3176633,20.5757798 C18.8406839,20.7761673 18.5690268,20.8915904 18.5690268,20.8915904 L19.3334573,24 C19.3334573,24 19.6777669,23.9166388 20.2763602,23.7691537 C20.5780259,23.6922049 20.9460265,23.6024314 21.364568,23.4950237 C21.7925859,23.4148687 22.249033,23.1952441 22.7576004,22.9948567 C23.2582707,22.7656135 23.84107,22.6133191 24.3812254,22.2462093 C24.9245396,21.8967337 25.5515621,21.6049696 26.1043528,21.1368646 C26.63977,20.6543317 27.2857453,20.2359228 27.7627246,19.6235388 C28.2839272,19.0496293 28.7988122,18.4468639 29.1984009,17.7607374 C29.6611656,17.1066729 29.9754665,16.3884844 30.3071409,15.6783114 C30.6072273,14.9681384 30.8488757,14.2419344 31.046301,13.5365707 C31.4206192,12.1226371 31.5880358,10.7792399 31.6527912,9.62981765 C31.7064909,8.47879233 31.6749029,7.52174203 31.608568,6.82920313 C31.584877,6.50217086 31.5422331,6.1831541 31.5090657,5.96513259 Z M14.135646,5.96513259 C14.1087962,5.79039476 14.096161,5.6958119 14.096161,5.6958119 L14.0550965,5.7054305 C13.3696361,2.44632957 10.5219747,0 7.10730805,0 C3.1824946,0 0,3.23024514 0,7.21394696 C0,11.1976488 3.1824946,14.4278939 7.10730805,14.4278939 C7.45951465,14.4278939 7.79750663,14.3733886 8.13391921,14.3236925 C8.02494049,14.6956115 7.91280296,15.073943 7.73275116,15.4138 C7.55269935,15.9075546 7.27156584,16.3355821 6.99201172,16.7668158 C6.75826025,17.2333177 6.34603639,17.5491283 6.04279124,17.9483 C5.72533148,18.3362501 5.29257539,18.5943491 4.94984521,18.916572 C4.61343262,19.2532229 4.17277953,19.4215483 3.82215233,19.658807 C3.45573111,19.8720192 3.13669195,20.1076748 2.79554117,20.2198918 C2.46702559,20.3577583 2.17957447,20.4763877 1.9442436,20.5757798 C1.46884366,20.7729611 1.19718656,20.8883842 1.19718656,20.8883842 L1.96161702,23.9967938 C1.96161702,23.9967938 2.30592661,23.9134326 2.90451989,23.7659475 C3.20618563,23.6889987 3.57418625,23.5992252 3.99272772,23.4918175 C4.42074561,23.4116625 4.87719272,23.1920379 5.3857601,22.9916505 C5.88643047,22.7624073 6.46922973,22.6101129 7.00938514,22.2430031 C7.55269935,21.8935275 8.17972186,21.6017634 8.73251249,21.1336584 C9.2679297,20.6511255 9.91390503,20.2327166 10.3908844,19.6203326 C10.912087,19.0464231 11.4269719,18.4436577 11.8265606,17.7575312 C12.2893253,17.1034667 12.6036263,16.3852782 12.9353006,15.6751052 C13.235387,14.9649322 13.4770355,14.2387282 13.6744607,13.5333645 C14.0487789,12.1194309 14.2161955,10.7760337 14.280951,9.62661145 C14.3346506,8.47558613 14.3030626,7.51853584 14.2367277,6.82599693 C14.2114573,6.50217086 14.1688134,6.1831541 14.135646,5.96513259 Z" id="Shape"></path>
                        </g>
                    </g>
                </g>
            </g>
        </g>
    </g>
</svg>