<?xml version="1.0" encoding="UTF-8"?>
<svg width="17px" height="17px" viewBox="0 0 17 17" version="1.1" xmlns="http://www.w3.org/2000/svg" xmlns:xlink="http://www.w3.org/1999/xlink">
    <title>bxl-facebook-circle</title>
    <g id="Symbols" stroke="none" stroke-width="1" fill="none" fill-rule="evenodd">
        <g id="Elements/Footer" transform="translate(-1064.000000, -338.000000)" fill="#FFFFFF" fill-rule="nonzero">
            <g id="Footer" transform="translate(0.000000, -0.000000)">
                <g id="Group-23" transform="translate(-11.000000, 322.000000)">
                    <g id="Group" transform="translate(1027.000000, 9.745391)">
                        <g id="Group-18" transform="translate(41.666667, 0.000000)">
                            <g id="bxl-facebook-circle" transform="translate(6.668333, 6.498551)">
                                <path d="M8.3325,0 C3.73083333,0 0,3.63584284 0,8.1203468 C0,12.1728051 3.04666667,15.5317164 7.03083333,16.1432397 L7.03083333,10.4681738 L4.91416667,10.4681738 L4.91416667,8.1203468 L7.03083333,8.1203468 L7.03083333,6.33125549 C7.03083333,4.29446883 8.275,3.17131255 10.1775,3.17131255 C11.0891667,3.17131255 12.0441667,3.32967515 12.0441667,3.32967515 L12.0441667,5.32666813 L10.9908333,5.32666813 C9.9575,5.32666813 9.63416667,5.9536216 9.63416667,6.59600527 L9.63416667,8.11872256 L11.9433333,8.11872256 L11.5741667,10.4665496 L9.63416667,10.4665496 L9.63416667,16.1416155 C13.6183333,15.5333406 16.665,12.1736172 16.665,8.1203468 C16.665,3.63584284 12.9341667,0 8.3325,0 Z" id="Path"></path>
                            </g>
                        </g>
                    </g>
                </g>
            </g>
        </g>
    </g>
</svg>