<?xml version="1.0" encoding="UTF-8"?>
<svg width="24px" height="24px" viewBox="0 0 24 24" version="1.1" xmlns="http://www.w3.org/2000/svg" xmlns:xlink="http://www.w3.org/1999/xlink">
    <title>Icons/software-mac</title>
    <g id="Icons/software-mac" stroke="none" stroke-width="1" fill="none" fill-rule="evenodd">
        <g id="apple" transform="translate(1.852646, -0.000000)" fill="#FFFFFF" fill-rule="nonzero">
            <path d="M11.3168118,5.65304756 C10.9845948,5.75485599 10.4969859,5.84058942 9.82183523,5.89953115 C9.88077696,2.86135298 11.4239786,0.723375754 14.5371735,-1.52293152e-15 C15.035499,2.22906899 13.138647,5.04219692 11.3168118,5.65304756 L11.3168118,5.65304756 Z M17.8164769,9.54855995 C18.1594106,9.04487609 18.7059612,8.4822505 19.4561286,7.84996651 C18.261219,6.37106497 16.8787676,5.47622237 14.8961822,5.47622237 C12.9993302,5.47622237 11.4025452,6.45144005 10.2344273,6.45144005 C9.24313463,6.45144005 7.45344943,5.58874749 5.70663094,5.58874749 C1.97722706,5.58874749 0,9.23777629 0,13.0368386 C0,17.2592096 3.19892833,24 6.44072338,24 C7.71600804,24 8.86269257,23.035499 10.3791025,23.035499 C11.9490958,23.035499 13.2083054,23.9571333 14.6818486,23.9571333 C17.1466845,23.9571333 19.4293369,19.8044206 20.1473543,17.5432016 C17.6396517,16.7769591 15.6249163,12.7099799 17.8164769,9.54855995 Z" id="Shape"></path>
        </g>
    </g>
</svg>