<?xml version="1.0" encoding="UTF-8"?>
<svg width="24px" height="24px" viewBox="0 0 24 24" version="1.1" xmlns="http://www.w3.org/2000/svg" xmlns:xlink="http://www.w3.org/1999/xlink">
    <title>Group</title>
    <g id="🎨-UI" stroke="none" stroke-width="1" fill="none" fill-rule="evenodd">
        <g id="Contact-Us" transform="translate(-224.000000, -474.000000)">
            <g id="Group-25" transform="translate(140.000000, 200.000000)">
                <g id="Group-24" transform="translate(64.000000, 72.000000)">
                    <g id="Group-20" transform="translate(0.000000, 186.000000)">
                        <g id="Group" transform="translate(20.000000, 16.000000)">
                            <rect id="Rectangle" fill="#D8D8D8" opacity="0" x="0" y="0" width="24" height="24"></rect>
                            <g id="bxs-phone" transform="translate(2.999718, 3.185182)" fill="#362F8A">
                                <path d="M17.487282,13.9548184 L13.422282,10.2588184 C13.023282,9.89581842 12.407282,9.91481842 12.031282,10.3018184 L9.63828196,12.7628184 C9.06228196,12.6528184 7.90428196,12.2918184 6.71228196,11.1028184 C5.52028196,9.90981842 5.15928196,8.74881842 5.05228196,8.17681842 L7.51128196,5.78281842 C7.89928196,5.40681842 7.91728196,4.79181842 7.55428196,4.39181842 L3.85928196,0.327818418 C3.49628196,-0.073181582 2.87928196,-0.111181582 2.46828196,0.240818418 L0.298281957,2.10181842 C0.125281957,2.27581842 0.0222819568,2.50581842 0.00828195677,2.75081842 C-0.00671804323,3.00081842 -0.292718043,8.92281842 4.29928196,13.5168184 C8.30528196,17.5218184 13.323282,17.8148184 14.705282,17.8148184 C14.907282,17.8148184 15.031282,17.8088184 15.064282,17.8068184 C15.309282,17.7928184 15.539282,17.6898184 15.712282,17.5158184 L17.572282,15.3448184 C17.926282,14.9338184 17.887282,14.3178184 17.487282,13.9548184 Z" id="Path"></path>
                            </g>
                        </g>
                    </g>
                </g>
            </g>
        </g>
    </g>
</svg>