<?xml version="1.0" encoding="UTF-8"?>
<svg width="18px" height="18px" viewBox="0 0 18 18" version="1.1" xmlns="http://www.w3.org/2000/svg" xmlns:xlink="http://www.w3.org/1999/xlink">
    <title>bxl-dribbble</title>
    <g id="Symbols" stroke="none" stroke-width="1" fill="none" fill-rule="evenodd">
        <g id="Elements/Footer" transform="translate(-1147.000000, -338.000000)" fill="#FFFFFF" fill-rule="nonzero">
            <g id="Footer" transform="translate(0.000000, -0.000000)">
                <g id="Group-23" transform="translate(-11.000000, 322.000000)">
                    <g id="Group" transform="translate(1027.000000, 9.745391)">
                        <g id="Group-19" transform="translate(125.000000, 0.000000)">
                            <g id="bxl-dribbble" transform="translate(6.666667, 6.496927)">
                                <path d="M15.55,4.04433714 C14.805,2.79936348 13.7941667,1.81345478 12.5158333,1.08823529 C11.2383333,0.363015803 9.84416667,0 8.33333333,0 C6.8225,0 5.42833333,0.363015803 4.15,1.08823529 C2.8725,1.81345478 1.86083333,2.79936348 1.11666667,4.04433714 C0.3725,5.2893108 0,6.6487928 0,8.12115891 C0,9.59352502 0.371666667,10.953007 1.11666667,12.1979807 C1.86166667,13.4437665 2.8725,14.428863 4.15083333,15.1540825 C5.42833333,15.879302 6.8225,16.2423178 8.33333333,16.2423178 C9.84416667,16.2423178 11.2383333,15.879302 12.5166667,15.1540825 C13.7941667,14.428863 14.8058333,13.4437665 15.5508333,12.1979807 C16.295,10.953007 16.6666667,9.59352502 16.6666667,8.12115891 C16.6666667,6.6487928 16.295,5.2893108 15.55,4.04433714 Z M8.33333333,1.34811238 C10,1.34811238 11.4766667,1.86786655 12.7666667,2.90656277 C12,3.85998683 10.8616667,4.64449078 9.35,5.26169886 C8.515,3.78933275 7.61,2.55978929 6.6325,1.57469271 C7.20083333,1.42363916 7.76583333,1.34811238 8.33333333,1.34811238 Z M2.925,3.89815628 C3.55333333,3.12908253 4.305,2.52892888 5.18416667,2.095259 C6.19416667,3.07061018 7.12166667,4.28797191 7.9675,5.74978051 C6.30083333,6.23705004 4.53916667,6.48068481 2.68333333,6.48068481 C2.20583333,6.48068481 1.845,6.4701273 1.6,6.44820018 C1.85583333,5.51670325 2.2975,4.66723003 2.925,3.89815628 Z M1.38333333,8.12115891 C1.38333333,8.07730465 1.38583333,8.023705 1.39166667,7.95873573 C1.3975,7.89376646 1.4,7.84016681 1.4,7.79631255 C1.61166667,7.80768218 1.93416667,7.81255487 2.3675,7.81255487 C4.58916667,7.81255487 6.65583333,7.51450834 8.56666667,6.91922739 C8.7225,7.22214662 8.88416667,7.56323529 9.05,7.94249342 C7.95,8.18044337 6.82166667,8.759482 5.66583333,9.68042142 C4.51,10.6013608 3.66666667,11.5702151 3.13333333,12.5877963 C1.96666667,11.2989684 1.38333333,9.81035996 1.38333333,8.12115891 Z M8.33333333,14.8942054 C6.755,14.8942054 5.33833333,14.4174934 4.0825,13.4656936 C4.58333333,12.501712 5.3525,11.5799605 6.39166667,10.7036874 C7.43,9.82660228 8.46083333,9.28004829 9.48333333,9.06321335 C10.1266667,10.7954565 10.5608333,12.5869842 10.7833333,14.4394205 C9.97166667,14.7423398 9.155,14.8942054 8.33333333,14.8942054 Z M14.2333333,11.6782265 C13.6783333,12.5439421 12.9616667,13.2537313 12.0833333,13.8067823 C11.8833333,12.1175812 11.5,10.4714223 10.9341667,8.86830553 C11.7108333,8.81470588 12.405,8.78709394 13.0175,8.78709394 C13.6833333,8.78709394 14.4225,8.81470588 15.2333333,8.86830553 C15.1216667,9.87532924 14.7883333,10.8116989 14.2333333,11.6782265 Z M13.2,7.61764706 C12.2333333,7.61764706 11.3391667,7.65581651 10.5166667,7.73134328 C10.305,7.20103161 10.1166667,6.76248903 9.95,6.41571554 C11.6716667,5.67993854 12.8933333,4.78661106 13.6158333,3.7357331 C14.6158333,4.88406497 15.1608333,6.1940079 15.2491667,7.66637401 C14.5725,7.63388938 13.8891667,7.61764706 13.2,7.61764706 Z" id="Shape"></path>
                            </g>
                        </g>
                    </g>
                </g>
            </g>
        </g>
    </g>
</svg>