<?xml version="1.0" encoding="UTF-8"?>
<svg width="24px" height="24px" viewBox="0 0 24 24" version="1.1" xmlns="http://www.w3.org/2000/svg" xmlns:xlink="http://www.w3.org/1999/xlink">
    <title>Icons/software-linux</title>
    <g id="Icons/software-linux" stroke="none" stroke-width="1" fill="none" fill-rule="evenodd">
        <g id="linux" transform="translate(2.000000, 0.000000)" fill="#FFFFFF" fill-rule="nonzero">
            <path d="M8.59737981,5.79329148 C8.5880056,5.72767198 8.68643485,5.68548802 8.74736724,5.65736538 C8.82704806,5.62455563 8.93016442,5.6104943 9.00515813,5.65267827 C9.02390656,5.66205248 9.04265499,5.68548802 9.03328077,5.70423645 C9.01453234,5.76048173 8.9207902,5.75110752 8.86923202,5.77923016 C8.82236095,5.8026657 8.78486409,5.85891098 8.72861881,5.85891098 C8.68174774,5.86359809 8.60206692,5.84016255 8.59737981,5.79329148 L8.59737981,5.79329148 Z M9.75509527,5.77923016 C9.80196634,5.8026657 9.8394632,5.85891098 9.89570848,5.85891098 C9.94726666,5.85891098 10.0269475,5.84016255 10.0316346,5.78860437 C10.0410088,5.72298487 9.94257956,5.68080091 9.88164716,5.65267827 C9.80196634,5.61986852 9.69884999,5.6058072 9.62385627,5.64799116 C9.60510784,5.65736538 9.58635941,5.68080091 9.59573363,5.69954934 C9.60979495,5.76048173 9.70353709,5.75110752 9.75509527,5.77923016 L9.75509527,5.77923016 Z M19.8183143,20.3186365 C19.7948787,20.7029793 19.5136523,20.9654573 19.1668064,21.1763771 C18.4684274,21.5982167 17.4185154,21.91694 16.7810689,22.6856256 L16.6592041,22.5825092 L16.7810689,22.6856256 C16.1154996,23.4777467 15.2952559,23.9323961 14.5171961,23.9933285 C13.7438234,24.0542609 13.0173218,23.6980407 12.6282919,22.9152938 L12.6282919,22.9106067 C12.5767338,22.8121775 12.5392369,22.704374 12.5111143,22.5965705 C11.5033862,22.6528158 10.6268972,22.3481539 9.92851823,22.4043992 C8.89735467,22.4606444 8.25053388,22.7090611 7.66464549,22.7137482 C7.43966435,23.2105816 6.99438917,23.5386791 6.45068474,23.6605439 C5.7007476,23.8339668 4.75863907,23.6605439 3.83059186,23.1730847 L3.90558557,23.0324715 L3.83059186,23.1730847 C2.96347704,22.7137482 1.86200686,22.7559322 1.05113733,22.5871963 C0.643359009,22.5028284 0.287138867,22.352841 0.109028796,22.0106822 C-0.0643941675,21.6685233 -0.0315844176,21.1998126 0.212145153,20.5248692 C0.291825974,20.2858267 0.230893582,19.9296066 0.174648296,19.5499509 C0.146525653,19.3671537 0.118403011,19.1796694 0.118403011,18.9968723 C0.118403011,18.7953267 0.15121276,18.5984682 0.24964201,18.415671 C0.460561831,18.0172669 0.802720652,17.848531 1.11675683,17.7360405 C1.43079301,17.6235499 1.71670654,17.5485562 1.91356504,17.3470106 C2.15729461,17.0892197 2.38696286,16.6720671 2.69162483,16.4002149 C2.56976004,15.5940325 2.70099904,14.740979 2.98222547,13.9019868 C3.57280097,12.1255732 4.81957146,10.4241533 5.70543471,9.36955422 C6.46005896,8.29620669 6.68035299,7.43377898 6.76003381,6.33699591 C6.81159199,4.84649584 5.61169257,-0.00934714556 10.4112903,1.35147816e-05 C14.2031599,0.00471417583 13.987553,4.00281656 13.9641175,6.15419873 C13.9500562,7.56501798 14.7281159,8.52118783 15.5296113,9.52891586 C16.2420515,10.3725951 17.1747859,11.6053043 17.7091161,13.0161236 C18.145017,14.1691519 18.3137529,15.4440451 17.882539,16.7236253 C17.9481585,16.7470608 18.013778,16.7798706 18.0747104,16.8173675 C18.1403299,16.8548643 18.2012623,16.9017354 18.2621947,16.9532936 C18.5715438,17.2157716 18.669973,17.6235499 18.754341,18.0032056 C18.843396,18.3828612 18.9230768,18.7390814 19.0918127,18.9265657 C19.6120816,19.5077669 19.8370627,19.9342937 19.8183143,20.3186365 Z M9.75509527,5.11366095 C9.92383113,5.15584491 10.1722478,5.22615152 10.3644192,5.31989366 C10.2659899,4.74806659 10.575339,4.21842349 10.9174978,4.24185902 C11.3346504,4.25592034 11.5690057,4.96836063 11.3440246,5.52143927 C11.3065277,5.6104943 11.2127856,5.68080091 11.1612274,5.7370462 C11.4752636,5.84484966 11.6768092,5.92921759 11.7518029,5.96671445 C12.1220844,5.52143927 12.2580105,4.73869238 11.9533485,4.07312317 C11.494012,3.07008224 10.3503579,3.05133381 9.89102138,4.09187159 C9.74103395,4.42934331 9.7082242,4.79025056 9.75509527,5.11366095 L9.75509527,5.11366095 Z M7.58965178,5.99483709 C7.95524613,5.72767198 7.91306217,5.77454305 7.8661911,5.7370462 C7.49122253,5.4136358 7.55684203,4.45277884 7.95055903,4.41996909 C8.24584677,4.39653356 8.4567666,4.92148956 8.40052131,5.33864209 C8.54582163,5.24021284 8.71455749,5.16990623 8.87860624,5.12303516 C8.95828706,4.21842349 8.4567666,3.55285427 7.98336878,3.55285427 C7.09750553,3.55285427 6.85846306,5.31051945 7.58965178,5.99483709 L7.58965178,5.99483709 Z M7.14906371,6.97444248 C7.21937031,7.20411073 7.43497724,7.46658873 7.83806845,7.69156987 C8.20366281,7.9071768 8.40052131,8.23058719 8.77548988,8.39463594 C8.89735467,8.44619412 9.04265499,8.48369097 9.22545217,8.49306519 C10.0878799,8.54462337 10.4956582,7.96342208 11.0159271,7.79468623 C11.5643186,7.62126326 11.9580356,7.27910444 12.0799004,6.94631984 C12.2298878,6.54791573 11.9814712,6.25731509 11.5877542,6.09326634 C11.0581111,5.86359809 10.8237557,5.84953677 10.5284679,5.65736538 C10.0456959,5.3480163 9.64729181,5.24021284 9.3145072,5.24021284 C8.63956377,5.24021284 8.22709835,5.69954934 8.00680431,5.90578205 C7.98336878,5.92921759 7.63652285,6.18232137 7.34592221,6.3979283 C7.14906371,6.55260284 7.08344421,6.74477423 7.14906371,6.97444248 L7.14906371,6.97444248 Z M5.57888282,18.8234493 L4.66020982,17.1548392 C4.34148654,16.7236253 4.01338904,16.4611473 3.63373336,16.404902 C3.27282611,16.3486567 3.04315786,16.4705215 2.8041154,16.7283124 C2.57913425,16.9673549 2.39164997,17.3048266 2.13385908,17.5719917 C1.76826472,17.8766537 1.69795811,17.8625923 1.21518608,18.0360153 C0.91989833,18.1391317 0.685542973,18.2516222 0.521494224,18.5656584 C0.394942331,18.8000138 0.423064974,19.1374855 0.47931026,19.5030798 C0.535555545,19.8733613 0.619923474,20.2670783 0.507432902,20.6232984 L0.507432902,20.6326727 C0.273077546,21.2748063 0.273077546,21.6497749 0.385568117,21.8700689 C0.75584958,22.5918834 2.56976004,22.1559825 3.97120507,22.8965454 C5.44295671,23.665231 7.37404485,23.6980407 7.50059674,22.0528661 C7.59902599,21.0920092 6.02415799,19.7561836 5.57888282,18.8234493 L5.57888282,18.8234493 Z M12.7923407,20.5014337 C12.9423281,19.9858519 13.0876284,19.5030798 13.111064,19.1421726 C13.1485608,18.4297323 13.1860577,17.7969728 13.3172967,17.2720168 C13.462597,16.6814413 13.7531977,16.1892951 14.3203376,15.9924366 C14.4281411,15.003457 15.1968266,15.003457 16.1154996,15.4065482 C17.0013629,15.8049523 17.3341475,16.1564853 17.1841601,16.6298832 C17.2310311,16.6298832 17.2779022,16.6251961 17.3810186,16.6298832 C17.6247481,15.8377621 16.7107623,15.3174932 15.9420767,14.9987699 C16.0780028,14.436317 16.0545673,13.8691771 15.9233283,13.3254726 C15.6421018,12.1396345 14.864042,11.0850354 14.2734665,10.5600794 C14.1656631,10.5553923 14.1750373,10.6491345 14.3953313,10.8647414 C14.9390358,11.3662619 16.1342481,13.1707981 15.4874273,14.8440954 C15.3046301,14.7972243 15.1312071,14.7737887 14.9765326,14.7784759 C14.7281159,13.4145277 14.1562889,12.2849349 13.8703753,11.7506046 C13.331358,10.7475637 12.4876787,8.68992369 12.1267715,7.26504312 C11.9158517,7.56501798 11.5455702,7.82280887 11.0815466,7.96810919 C10.8612526,8.0384158 10.6268972,8.22590008 10.3362966,8.38994883 C9.68478866,8.7649174 8.93016442,8.80241426 8.34896313,8.33370355 C8.13804331,8.16496769 7.97399456,7.9774834 7.75838763,7.85093151 C7.68339392,7.80874755 7.51934517,7.69625698 7.46778699,7.65876012 C7.37404485,9.43048662 6.18820674,11.6568625 5.62575389,12.9411299 C5.236724,13.86449 5.00705575,14.8534696 4.9789331,15.8237007 C3.95714375,14.4597526 4.70239378,12.7161487 5.10079789,11.9615245 C5.54607307,11.1365936 5.61637967,10.9069254 5.50857621,10.9866062 C5.105485,11.6428012 4.47741264,12.6880261 4.23368307,13.7613736 C4.10713118,14.3191394 4.08369564,14.8862793 4.24774439,15.4112353 C4.41179314,15.9361913 4.76801328,16.4189633 5.40077275,16.8126803 C5.40077275,16.8126803 6.56317531,17.4829367 7.19593478,18.3359902 C7.54278071,18.8047009 7.65058417,19.2124792 7.54278071,19.5030798 C7.42560303,19.817116 7.09281842,19.9202324 6.76003381,19.9202324 C6.98501496,20.2014588 7.24280585,20.5295563 7.43497724,20.8389054 C9.19732952,22.0434919 11.2877793,21.5747812 12.7923407,20.5014337 L12.7923407,20.5014337 Z M18.8574573,19.1468597 C18.3887466,18.6172166 18.5199856,17.5954272 18.055962,17.1970231 C17.7325516,16.9157967 17.4185154,16.9439193 16.9966758,16.9579807 C16.6357685,17.3704461 15.7874021,17.8766537 15.1968266,17.7219791 C14.6578093,17.586053 14.3531474,16.9579807 14.3156505,16.3392825 C14.3015892,16.3486567 14.2828408,16.3533438 14.2687794,16.3627181 C13.9359948,16.5455152 13.7485105,16.8689256 13.6266458,17.3516977 C13.5094681,17.8297826 13.4672841,18.4531678 13.4297873,19.1656081 C13.3969775,19.7186868 13.1391866,20.4030044 12.9657637,21.0685736 C12.8017149,21.6872718 12.6939114,22.2497246 12.9142055,22.7699935 C13.2516772,23.449624 13.8281914,23.7261634 14.4937606,23.6746052 C15.1593298,23.623047 15.9186411,23.2152687 16.5373393,22.4793929 C17.5685029,21.2326224 19.457407,21.087322 19.499591,20.2998881 C19.5136523,20.0608456 19.3542907,19.6905641 18.8574573,19.1468597 Z M7.52871938,6.96975537 C7.62246153,7.05881041 7.74901342,7.18067519 7.90368795,7.30253998 C8.21303702,7.54626955 8.64425088,7.79937333 9.1832682,7.79937333 C9.72697263,7.79937333 10.2378673,7.52283401 10.6737683,7.29316576 C10.9034365,7.17130098 11.1846629,6.96506826 11.3674601,6.80570662 C11.5502573,6.64634498 11.6439994,6.51041887 11.5127604,6.49635755 C11.3815214,6.48229623 11.3908957,6.61822234 11.231534,6.73540002 C11.0253013,6.88538744 10.7768846,7.08224594 10.5800261,7.19473651 C10.2331802,7.39159501 9.66604024,7.67282144 9.17858109,7.67282144 C8.69112195,7.67282144 8.30209206,7.4478403 8.01149142,7.21817205 C7.8661911,7.10099437 7.74432631,6.98381669 7.65058417,6.89476166 C7.58027756,6.82914216 7.56152913,6.67915473 7.44903856,6.66509341 C7.38341906,6.6604063 7.36467063,6.83851637 7.52871938,6.96975537 L7.52871938,6.96975537 Z" id="Shape"></path>
        </g>
    </g>
</svg>