<?xml version="1.0" encoding="UTF-8"?>
<svg width="17px" height="14px" viewBox="0 0 17 14" version="1.1" xmlns="http://www.w3.org/2000/svg" xmlns:xlink="http://www.w3.org/1999/xlink">
    <title>bxl-twitter</title>
    <g id="Symbols" stroke="none" stroke-width="1" fill="none" fill-rule="evenodd">
        <g id="Elements/Footer" transform="translate(-1106.000000, -339.000000)" fill="#FFFFFF" fill-rule="nonzero">
            <g id="Footer" transform="translate(0.000000, -0.000000)">
                <g id="Group-23" transform="translate(-11.000000, 322.000000)">
                    <g id="Group" transform="translate(1027.000000, 9.745391)">
                        <g id="Group-20" transform="translate(83.333333, 0.000000)">
                            <g id="bxl-twitter" transform="translate(6.666667, 8.136589)">
                                <path d="M14.6941667,3.23059701 C14.705,3.3727173 14.705,3.51402546 14.705,3.65533363 C14.705,7.97985075 11.3275,12.9629939 5.155,12.9629939 C3.25333333,12.9629939 1.48666667,12.4261853 0,11.4938762 C0.27,11.5239245 0.53,11.534482 0.810833333,11.534482 C2.38,11.534482 3.82416667,11.0179763 4.97833333,10.1368306 C3.5025,10.1067823 2.26583333,9.16472783 1.83916667,7.86859087 C2.04666667,7.89863916 2.255,7.91894205 2.47333333,7.91894205 C2.77416667,7.91894205 3.07666667,7.87833626 3.3575,7.80768218 C1.81833333,7.50395083 0.665833333,6.18751097 0.665833333,4.59738806 L0.665833333,4.55678227 C1.11333333,4.79960492 1.6325,4.95147059 2.1825,4.97177349 C1.27833333,4.38542581 0.685833333,3.38246269 0.685833333,2.24793679 C0.685833333,1.6404741 0.851666667,1.0833626 1.1425,0.597717296 C2.795,2.58171642 5.27916667,3.8786655 8.06416667,4.02078578 C8.0125,3.77715101 7.98083333,3.52458297 7.98083333,3.27120281 C7.98083333,1.46830553 9.4775,0 11.3375,0 C12.3041667,0 13.1766667,0.394688323 13.79,1.03301141 C14.5483333,0.890891133 15.275,0.617208077 15.92,0.242822651 C15.6708333,1.00215101 15.14,1.6404741 14.4441667,2.04571993 C15.12,1.97425373 15.775,1.79233977 16.3766667,1.53895961 C15.92,2.18702809 15.3491667,2.76444249 14.6941667,3.23059701 Z" id="Path"></path>
                            </g>
                        </g>
                    </g>
                </g>
            </g>
        </g>
    </g>
</svg>