<?xml version="1.0" encoding="UTF-8"?>
<svg width="24px" height="24px" viewBox="0 0 24 24" version="1.1" xmlns="http://www.w3.org/2000/svg" xmlns:xlink="http://www.w3.org/1999/xlink">
    <title>Icons/basic-close</title>
    <g id="Icons/basic-close" stroke="none" stroke-width="1" fill="none" fill-rule="evenodd">
        <path d="M7.75735931,6.34314575 L11.9992525,10.5852525 L16.2426407,6.34314575 C16.633165,5.95262146 17.26633,5.95262146 17.6568542,6.34314575 C18.0473785,6.73367004 18.0473785,7.36683502 17.6568542,7.75735931 L13.4142525,11.9992525 L17.6568542,16.2426407 C18.0473785,16.633165 18.0473785,17.26633 17.6568542,17.6568542 C17.26633,18.0473785 16.633165,18.0473785 16.2426407,17.6568542 L11.9992525,13.4142525 L7.75735931,17.6568542 C7.36683502,18.0473785 6.73367004,18.0473785 6.34314575,17.6568542 C5.95262146,17.26633 5.95262146,16.633165 6.34314575,16.2426407 L10.5852525,11.9992525 L6.34314575,7.75735931 C5.95262146,7.36683502 5.95262146,6.73367004 6.34314575,6.34314575 C6.73367004,5.95262146 7.36683502,5.95262146 7.75735931,6.34314575 Z" id="Combined-Shape" fill="#FFFFFF"></path>
    </g>
</svg>