<svg width="1533" height="861" xmlns="http://www.w3.org/2000/svg"><defs><linearGradient x1="50%" y1="91.385%" x2="50%" y2="1.925%" id="a"><stop stop-color="#1D172D" offset="0%"/><stop stop-color="#1D172D" stop-opacity=".86" offset="31.788%"/><stop stop-color="#1D172D" stop-opacity=".9" offset="85.905%"/><stop stop-color="#1D172D" offset="100%"/></linearGradient></defs><g fill="none" fill-rule="evenodd"><g stroke="#8A66D1" stroke-linecap="round" stroke-linejoin="round"><path d="M73.873 669.589l42.568-233.517L273.54 797.868l208.648-361.796 57.053-195.35V1l122.67 144.203 134.535 95.52v171.039l65.863 187.448 278.764-22.228 189.413 185.146 56.892-326.056 134.717 227.62"/><path d="M78.54 487.656l37.901-51.584L414.02 552.43l246.165 156.693L862.31 599.21l-46.17 194.032 324.934-216.26 78.025-229.292L1004.911 366l-22.523-220.93-185.942 95.652H539.24l257.205 171.039-314.258 24.31-171.89-136.46L1 305.425l309.297-160.353L539.241 1"/><path d="M78.54 399.434l37.901 36.638 193.856-136.46v-154.54l228.944 95.65 122.67-95.52 320.477-.13 236.71 202.618 84.136-202.487 84.144 290.869 144.54-220.95"/><path d="M539.24 240.723l-228.943 58.89L414.02 552.43l45.609 278.595 200.556-121.902-177.996-273.051"/><path d="M660.184 709.123l136.262-297.361 344.627 165.22-136.162-210.983-208.465-125.276m0 171.039l208.465-45.763m527.006 86.396l-144.539-16.323-168.28-88.382 111.388 414.438"/><path d="M660.184 709.123l155.492 83.98 209.838 52.668 115.559-268.79m390.844-124.586l-144.539-16.323-168.28-88.382 111.388 414.438m50.036-720.85L982.388 145.07l320.846.132z"/><path d="M1522.095 451.608l-134.717-15.536-168.28-88.382 111.388 414.438"/></g><path fill="url(#a)" d="M91 0h1440v860H91z" transform="translate(1 1)"/></g></svg>