<svg width="135" height="44" xmlns="http://www.w3.org/2000/svg"><g fill="none"><path d="M26.636 25.533l-.039-.04a5.219 5.219 0 01-.011-7.099 1.709 1.709 0 00-2.366-2.467c-.014.014-.026.027-.04.039a5.25 5.25 0 01-7.11 0c-.014-.011-.027-.024-.041-.038a1.709 1.709 0 00-2.366 2.466c.205.213.512.572.852.98a4.014 4.014 0 010 5.132 20.314 20.314 0 01-.9 1.028 1.708 1.708 0 002.415 2.415l.04-.039.045-.043a4.991 4.991 0 017.022 0l.044.043a1.708 1.708 0 002.456-2.376v-.001z" fill="#FFF"/><path d="M27.887 11.72c-1.667-3.226-.589-7.247 2.467-9.207a7.085 7.085 0 0110.774 7.375 1.26 1.26 0 01-1.749.905 1.26 1.26 0 01-.72-1.402 4.565 4.565 0 10-3.089 3.435 1.253 1.253 0 011.461.574 1.26 1.26 0 01-.7 1.83 7.098 7.098 0 01-8.444-3.51zm13.185 22.107c.782 3.58-1.322 7.218-4.81 8.33a7.15 7.15 0 01-8.576-10.005 1.273 1.273 0 011.941-.421 1.27 1.27 0 01.336 1.555 4.607 4.607 0 103.908-2.542 1.265 1.265 0 01-1.273-.941 1.27 1.27 0 011.16-1.6 7.163 7.163 0 017.314 5.624zm-35.6-5.257c3.561-.863 7.246 1.153 8.44 4.617a7.15 7.15 0 01-9.807 8.804 1.273 1.273 0 01-.468-1.93 1.27 1.27 0 011.547-.373 4.607 4.607 0 10-2.631-3.848 1.264 1.264 0 01-.912 1.295 1.27 1.27 0 01-1.625-1.123 7.163 7.163 0 015.456-7.442zm6.496-14.81c-2.709 2.468-6.91 2.468-9.62 0a7.15 7.15 0 014.38-12.429 1.273 1.273 0 011.337 1.47A1.271 1.271 0 016.888 3.87a4.607 4.607 0 104.154 2.115 1.266 1.266 0 01.178-1.574 1.27 1.27 0 011.966.204 7.162 7.162 0 01-1.218 9.146z" fill="#F16622"/><path d="M77.779 2.272a1.29 1.29 0 00.374-.95 1.282 1.282 0 00-1.322-1.32H64.716a1.282 1.282 0 00-1.322 1.322 1.282 1.282 0 001.322 1.322h4.659v14.097a1.414 1.414 0 102.827 0V2.645h4.632c.353.01.694-.125.945-.373zm14.373 13.907L85.769.947c-.232-.619-.69-.946-1.332-.946-.604 0-1.062.321-1.326.935l-6.365 15.198c-.078.194-.122.4-.127.61-.004.367.137.72.392.986.255.279.618.434.996.425.273.001.54-.08.766-.231a1.51 1.51 0 00.542-.637l1.228-3.027h7.814l1.209 3.022c.103.267.29.494.533.646.23.148.497.226.77.227.377.008.74-.139 1.005-.406.267-.257.416-.612.412-.982a1.645 1.645 0 00-.134-.588zm-10.623-4.335l2.956-7.2 2.89 7.2h-5.846zM104.097 0H91.98a1.282 1.282 0 00-1.322 1.323 1.282 1.282 0 001.322 1.322h4.655v14.097a1.414 1.414 0 102.827 0V2.645h4.635a1.282 1.282 0 001.322-1.322A1.282 1.282 0 00104.097 0zM62.954 12.943c0 1.114-.309 2.078-.91 2.877a5.446 5.446 0 01-2.391 1.777 8.479 8.479 0 01-3.151.581c-1.462 0-2.816-.337-4.022-1.001a6.312 6.312 0 01-1.45-1.081c-.032-.033-.07-.065-.101-.097a1.425 1.425 0 01-.106-.125 1.322 1.322 0 011.053-2.128c.332-.004.652.12.895.347.079.074.291.342.522.517.227.174.47.326.724.453a5.37 5.37 0 002.485.572c1.057 0 1.958-.24 2.687-.724.702-.467 1.048-1.09 1.048-1.898 0-.78-.295-1.432-.9-1.99-.606-.558-1.568-.911-2.835-1.04-1.87-.18-3.366-.739-4.447-1.657-1.094-.933-1.652-2.125-1.652-3.532 0-.993.29-1.866.858-2.591.568-.725 1.337-1.27 2.311-1.646.961-.37 2.05-.556 3.237-.556 1.307 0 2.424.272 3.329.808.11.064.221.139.333.212.055.037.11.074.161.111l.014.014c.29.242.458.6.457.978a1.29 1.29 0 01-1.907 1.137c-.037-.02-.07-.042-.106-.065-.088-.05-.18-.102-.282-.162-.556-.323-1.284-.487-2.151-.487-1.076 0-1.949.208-2.604.618-.626.393-.933.952-.933 1.7 0 .702.278 1.274.85 1.75.57.476 1.653.807 3.195.965 1.814.18 3.245.738 4.252 1.661 1.02.936 1.537 2.183 1.537 3.702zm56.382 0c0 1.114-.31 2.078-.91 2.877a5.45 5.45 0 01-2.391 1.777 8.479 8.479 0 01-3.154.582c-1.461 0-2.817-.337-4.022-1.002a6.308 6.308 0 01-1.45-1.08c-.032-.033-.069-.065-.101-.097a1.322 1.322 0 01.946-2.254c.333-.003.653.121.896.348.079.074.29.342.522.517.227.174.47.325.725.453.77.388 1.622.584 2.484.572 1.057 0 1.957-.24 2.687-.724.702-.467 1.048-1.09 1.048-1.899 0-.78-.295-1.43-.9-1.989-.605-.558-1.565-.91-2.835-1.039-1.87-.18-3.366-.739-4.446-1.657-1.095-.933-1.654-2.125-1.654-3.532 0-.993.292-1.866.86-2.59.567-.726 1.338-1.273 2.312-1.649.96-.37 2.05-.556 3.236-.556 1.307 0 2.425.272 3.33.808.11.064.221.139.332.212.055.037.11.074.161.111l.014.014a1.29 1.29 0 01-1.45 2.115c-.036-.02-.069-.042-.106-.065-.087-.05-.18-.102-.278-.162-.557-.323-1.283-.487-2.152-.487-1.075 0-1.948.208-2.603.618-.627.393-.933.952-.933 1.7 0 .702.278 1.274.85 1.75.571.476 1.652.807 3.194.965 1.815.18 3.246.738 4.253 1.661 1.017.936 1.535 2.183 1.535 3.702zM61.114 27.006c-1.358-.772-2.93-1.163-4.67-1.163h-4.14a1.322 1.322 0 00-.947.373c-.26.252-.4.6-.388.962v15.486A1.318 1.318 0 0052.304 44h4.14c1.74 0 3.313-.392 4.67-1.163a8.24 8.24 0 003.19-3.236c.755-1.372 1.138-2.951 1.138-4.69 0-1.74-.383-3.316-1.139-4.681a8.253 8.253 0 00-3.189-3.224zm-4.67 14.598H53.64V28.239h2.806c1.233 0 2.351.285 3.323.85a5.942 5.942 0 012.279 2.366c.542 1.011.817 2.173.817 3.454 0 1.28-.278 2.446-.818 3.465a5.918 5.918 0 01-2.278 2.379c-.97.565-2.09.851-3.323.851zm20.159-5.142a5.288 5.288 0 002.153-1.878c.563-.859.847-1.855.847-2.962 0-1.118-.256-2.128-.765-3a5.3 5.3 0 00-2.14-2.047c-.91-.481-1.952-.725-3.099-.725h-4.115a1.285 1.285 0 00-1.333 1.328l.001 15.486a1.35 1.35 0 002.296.948c.246-.253.38-.594.373-.948v-5.55h3.113l3.893 6.246c.271.425.659.64 1.152.64.39 0 .704-.119.937-.352a1.18 1.18 0 00.348-.87 1.555 1.555 0 00-.25-.83l-3.411-5.486zm.422-4.843c0 .883-.322 1.611-.957 2.167-.636.556-1.47.844-2.466.844h-2.784v-6.3h2.784c.993 0 1.821.31 2.462.92.64.612.965 1.405.965 2.366l-.004.003zm38.715-5.776a1.317 1.317 0 00-.945.373c-.259.251-.399.6-.387.96v12.061l-9.707-12.91a1.48 1.48 0 00-.455-.343 1.306 1.306 0 00-1.505.233c-.25.255-.386.602-.373.96v15.466c-.013.357.122.704.373.96a1.376 1.376 0 001.9-.014c.244-.253.378-.594.37-.946V30.605l9.695 12.895a.968.968 0 00.468.363c.18.073.372.111.567.113.35.01.689-.125.936-.374.251-.255.387-.602.374-.96V27.178a1.275 1.275 0 00-1.31-1.333zm17.494 15.985c-.24-.223-.557-.335-.945-.335h-8.993V36.07h6.412c.344.01.679-.114.933-.348a1.248 1.248 0 000-1.788 1.322 1.322 0 00-.933-.348h-6.412v-5.26h8.993c.386 0 .704-.114.945-.337.244-.228.377-.55.366-.884a1.221 1.221 0 00-.364-.915c-.24-.231-.557-.348-.947-.348h-10.325a1.318 1.318 0 00-.947.372c-.259.252-.399.6-.387.96v15.468a1.314 1.314 0 001.334 1.335h10.325c.388 0 .707-.118.947-.348.246-.242.378-.575.364-.919a1.156 1.156 0 00-.366-.883zm-45.567-.008a1.401 1.401 0 011.608-.79 6.274 6.274 0 10-4.6-4.424 1.399 1.399 0 01-.729 1.636c-.851.417-1.725 0-1.977-.911-.745-2.7-.215-5.655 1.606-8.012 2.248-2.907 6.133-4.15 9.66-3.116A9.086 9.086 0 0199.017 38.6c-1.793 4.05-6.206 6.14-10.368 5.162a1.41 1.41 0 01-.982-1.94z" fill="#FFF"/></g></svg>