<svg width="42" height="44" xmlns="http://www.w3.org/2000/svg"><g fill="none"><path d="M27.107 24.632l-.04-.041a5.313 5.313 0 01-.012-7.224c.383-.37.575-.896.52-1.425a1.746 1.746 0 00-1.636-1.56 1.732 1.732 0 00-1.29.475l-.042.04a5.345 5.345 0 01-7.237 0 1.733 1.733 0 00-1.332-.514 1.737 1.737 0 00-1.117 2.984c.21.217.522.582.868.998a4.084 4.084 0 01-.002 5.221 20.05 20.05 0 01-.916 1.046 1.739 1.739 0 002.5 2.419l.044-.044a5.08 5.08 0 017.191.044 1.739 1.739 0 002.499-2.418l.002-.001z" fill="#362F8A"/><path d="M28.38 10.575c-1.696-3.283-.6-7.375 2.51-9.37 3.482-2.233 8.1-1.082 10.147 2.461a7.235 7.235 0 01.818 5.046 1.283 1.283 0 01-1.78.919 1.281 1.281 0 01-.734-1.428 4.663 4.663 0 00-.526-3.256 4.651 4.651 0 00-6.63-1.525 4.664 4.664 0 00-1.575 5.879 4.654 4.654 0 005.589 2.398 1.276 1.276 0 011.487.584 1.28 1.28 0 01-.712 1.862c-3.263 1.036-6.942-.372-8.594-3.57zm13.418 22.497c.795 3.643-1.342 7.345-4.895 8.478-3.978 1.269-8.178-1.061-9.247-5.049a7.301 7.301 0 01.52-5.133 1.296 1.296 0 011.975-.43c.47.382.613 1.04.342 1.582a4.706 4.706 0 00-.337 3.31 4.694 4.694 0 006.064 3.219 4.708 4.708 0 003.07-5.32 4.696 4.696 0 00-4.82-3.797 1.287 1.287 0 01-1.297-.957 1.292 1.292 0 011.182-1.629c3.45-.156 6.668 2.177 7.443 5.726zM5.57 27.723c3.623-.88 7.373 1.172 8.587 4.698 1.36 3.947-.872 8.2-4.834 9.36a7.3 7.3 0 01-5.143-.4 1.295 1.295 0 01-.476-1.965 1.293 1.293 0 011.575-.379 4.706 4.706 0 003.318.26 4.694 4.694 0 003.076-6.135 4.708 4.708 0 00-5.388-2.948A4.696 4.696 0 002.6 35.121a1.287 1.287 0 01-.928 1.318 1.292 1.292 0 01-1.655-1.143C-.22 31.85 2.04 28.58 5.57 27.723zm6.613-15.072c-2.756 2.51-7.032 2.51-9.79 0-3.086-2.81-3.17-7.613-.25-10.532A7.301 7.301 0 016.848.003a1.295 1.295 0 011.36 1.495A1.294 1.294 0 017.01 2.585 4.705 4.705 0 003.973 3.95a4.694 4.694 0 00.245 6.86 4.708 4.708 0 006.141 0 4.696 4.696 0 00.878-6.073 1.287 1.287 0 01.182-1.602 1.292 1.292 0 012 .209c1.862 2.909 1.45 6.863-1.236 9.308z" fill="#F16622"/></g></svg>