<svg width="360" height="44" xmlns="http://www.w3.org/2000/svg"><g fill="none"><path d="M28.131 25.759a1.942 1.942 0 01-.205-.23 5.587 5.587 0 01.151-7.376 1.827 1.827 0 00.053-2.57 1.794 1.794 0 00-2.55-.053l-.043.041c-.052.05-.113.105-.186.163a5.515 5.515 0 01-7.149 0l-.186-.163-.043-.041a1.786 1.786 0 00-1.338-.497 1.807 1.807 0 00-1.591 1.186 1.829 1.829 0 00.443 1.943 22 22 0 01.9 1.044 4.295 4.295 0 010 5.459c-.36.438-.69.822-.909 1.05l-.04.044a1.827 1.827 0 00.04 2.526 1.794 1.794 0 002.507.044l.05-.037.046-.047a5.245 5.245 0 017.417 0l.047.047.043.041c.704.71 1.846.71 2.55 0 .705-.71.705-1.86 0-2.57l-.007-.004z" fill="#FFF"/><path d="M29.451 11.056a7.583 7.583 0 011.422-8.85A7.442 7.442 0 0139.686.98c2.887 1.586 4.408 4.884 3.75 8.13a1.329 1.329 0 01-1.849.959 1.34 1.34 0 01-.76-1.499 4.869 4.869 0 00-2.56-5.305 4.796 4.796 0 00-5.752 1.094 4.887 4.887 0 00-.465 5.88 4.803 4.803 0 005.508 1.997 1.32 1.32 0 011.543.611 1.346 1.346 0 01-.743 1.947c-3.476 1.1-7.234-.477-8.907-3.738zm13.925 23.529c.71 3.268-.782 6.619-3.675 8.259a7.51 7.51 0 01-8.914-1.124 7.652 7.652 0 01-1.542-8.917 1.335 1.335 0 012.045-.45c.49.4.638 1.088.355 1.655a4.929 4.929 0 001.112 5.85 4.837 4.837 0 005.894.452 4.922 4.922 0 001.979-5.612 4.868 4.868 0 00-4.857-3.395 1.338 1.338 0 01-1.346-1.003 1.36 1.36 0 01.21-1.145 1.34 1.34 0 011.017-.556c3.677-.164 6.937 2.363 7.722 5.986zM5.778 28.99a7.53 7.53 0 018.264 3.521 7.655 7.655 0 01-.907 8.995 7.513 7.513 0 01-8.798 1.774 1.36 1.36 0 01-.495-2.06v-.001a1.336 1.336 0 011.635-.397 4.84 4.84 0 005.775-1.255 4.93 4.93 0 00.314-5.944 4.844 4.844 0 00-5.61-1.865 4.901 4.901 0 00-3.26 4.964c.04.63-.36 1.203-.962 1.377a1.332 1.332 0 01-1.14-.182 1.355 1.355 0 01-.577-1.007c-.248-3.7 2.184-7.044 5.76-7.92zm6.865-15.759a7.509 7.509 0 01-8.932.913C.858 12.44-.557 9.058.223 5.81 1.003 2.56 3.794.205 7.105.003a1.34 1.34 0 011.079.44c.274.305.397.718.333 1.124a1.346 1.346 0 01-1.244 1.137A4.878 4.878 0 002.8 6.6a4.914 4.914 0 002.559 5.37 4.84 4.84 0 005.813-1.08 4.932 4.932 0 00.489-5.937 1.353 1.353 0 01.186-1.675 1.337 1.337 0 012.079.222 7.663 7.663 0 01-1.283 9.732z" fill="#F16622"/><path d="M109.153 8.722c.482-.49.744-1.158.724-1.848a2.506 2.506 0 00-.724-1.846 2.467 2.467 0 00-1.833-.73H83.903a2.47 2.47 0 00-1.831.731 2.51 2.51 0 00-.726 1.845 2.51 2.51 0 00.725 1.847 2.47 2.47 0 001.832.731h8.998V36.91a2.76 2.76 0 001.322 2.504 2.716 2.716 0 002.815 0 2.76 2.76 0 001.322-2.504V9.452h8.954a2.485 2.485 0 001.84-.73zm27.783 27.084L124.597 6.142c-.448-1.205-1.333-1.83-2.573-1.83-1.17 0-2.045.623-2.566 1.819l-12.302 29.6c-.15.375-.232.775-.243 1.179a2.747 2.747 0 00.757 1.922 2.527 2.527 0 001.926.828 2.619 2.619 0 001.487-.451c.46-.306.824-.737 1.049-1.243l2.373-5.893h15.092l2.337 5.886c.2.52.563.962 1.032 1.259.444.287.96.44 1.488.442a2.647 2.647 0 001.943-.792c.514-.5.8-1.192.794-1.911a3.236 3.236 0 00-.255-1.15zm-20.54-8.441l5.719-14.023 5.578 14.023h-11.297zM160.02 4.298h-23.428a2.47 2.47 0 00-1.831.731 2.51 2.51 0 00-.726 1.845 2.51 2.51 0 00.725 1.847 2.47 2.47 0 001.832.731h9V36.91a2.76 2.76 0 001.345 2.445 2.716 2.716 0 002.774 0 2.759 2.759 0 001.345-2.445V9.452h8.955a2.47 2.47 0 001.832-.731 2.51 2.51 0 00.725-1.847 2.51 2.51 0 00-.726-1.845 2.47 2.47 0 00-1.831-.73h.01zM80.499 29.504c0 2.166-.6 4.047-1.76 5.602a10.52 10.52 0 01-4.622 3.462 16.302 16.302 0 01-6.095 1.133 15.795 15.795 0 01-7.78-1.952 12.142 12.142 0 01-2.789-2.104c-.06-.064-.133-.125-.185-.187-.053-.062-.144-.161-.207-.242a2.596 2.596 0 01-.26-2.71 2.559 2.559 0 012.296-1.436 2.481 2.481 0 011.731.675c.31.36.647.697 1.008 1.006a8.77 8.77 0 001.382.88 10.306 10.306 0 004.8 1.115c2.046 0 3.784-.468 5.194-1.413 1.357-.906 2.026-2.12 2.026-3.694 0-1.52-.57-2.788-1.74-3.876-1.17-1.089-3.029-1.78-5.476-2.024-3.614-.35-6.508-1.438-8.594-3.228-2.116-1.817-3.194-4.136-3.194-6.879a8.017 8.017 0 011.658-5.043c1.09-1.394 2.589-2.473 4.472-3.202a17.273 17.273 0 016.257-1.089c2.525 0 4.684.53 6.433 1.574.214.126.43.27.644.414.106.071.213.144.312.216l.026.026a2.48 2.48 0 01.883 1.905 2.522 2.522 0 01-.726 1.78 2.484 2.484 0 01-2.959.435c-.07-.036-.134-.08-.205-.126-.17-.1-.35-.198-.544-.315-1.08-.63-2.48-.953-4.16-.953-2.079 0-3.765.404-5.033 1.204-1.214.765-1.802 1.853-1.802 3.309 0 1.368.536 2.482 1.642 3.408 1.106.925 3.194 1.573 6.175 1.873 3.507.352 6.274 1.439 8.22 3.238 1.971 1.832 2.972 4.26 2.972 7.218zm108.97 0c0 2.166-.599 4.047-1.757 5.602a10.536 10.536 0 01-4.624 3.462 16.294 16.294 0 01-6.095 1.133 15.795 15.795 0 01-7.773-1.952 12.141 12.141 0 01-2.804-2.104c-.06-.064-.133-.125-.186-.187-.052-.062-.143-.161-.206-.242a2.596 2.596 0 01-.258-2.714 2.558 2.558 0 012.303-1.432 2.481 2.481 0 011.731.675c.31.36.648.697 1.008 1.006a8.76 8.76 0 001.402.882 10.306 10.306 0 004.801 1.115c2.045 0 3.784-.469 5.195-1.413 1.356-.907 2.025-2.12 2.025-3.694 0-1.52-.57-2.788-1.74-3.876-1.17-1.089-3.025-1.773-5.48-2.024-3.614-.35-6.508-1.439-8.594-3.228-2.116-1.817-3.194-4.136-3.194-6.88a8.017 8.017 0 011.658-5.042c1.09-1.394 2.589-2.473 4.463-3.202A17.273 17.273 0 01177.6 4.3c2.525 0 4.683.53 6.433 1.574.214.126.43.27.643.414.106.071.214.144.313.216l.026.026a2.48 2.48 0 01.881 1.903 2.522 2.522 0 01-.726 1.78 2.484 2.484 0 01-1.764.74 2.45 2.45 0 01-1.19-.305c-.07-.036-.134-.08-.204-.126-.17-.1-.348-.198-.545-.315-1.08-.63-2.48-.953-4.16-.953-2.078 0-3.765.404-5.033 1.204-1.214.765-1.801 1.853-1.801 3.309 0 1.368.535 2.482 1.641 3.408 1.107.925 3.195 1.573 6.175 1.873 3.509.352 6.274 1.439 8.22 3.238 1.966 1.832 2.959 4.26 2.959 7.218zm27.421-22.92c-2.624-1.502-5.666-2.272-9.026-2.272h-7.996a2.513 2.513 0 00-2.575 2.6v30.163c-.008.692.26 1.358.747 1.848a2.54 2.54 0 001.834.752h7.995c3.366 0 6.402-.762 9.028-2.265a15.989 15.989 0 006.163-6.302c1.462-2.674 2.202-5.748 2.202-9.137 0-3.39-.744-6.454-2.202-9.113a16.03 16.03 0 00-6.17-6.274zm-9.026 28.43h-5.422V8.995h5.422c2.385 0 4.546.562 6.424 1.654a11.555 11.555 0 014.405 4.611c1.048 1.971 1.58 4.234 1.58 6.726s-.533 4.766-1.582 6.744a11.477 11.477 0 01-4.403 4.633c-1.876 1.094-4.039 1.65-6.424 1.65zm38.965-10.019c3.606-1.721 5.876-5.413 5.8-9.433 0-2.177-.497-4.144-1.475-5.845a10.289 10.289 0 00-4.136-3.983 12.581 12.581 0 00-5.99-1.422h-7.959a2.543 2.543 0 00-1.831.726 2.507 2.507 0 00-.744 1.874v30.163a2.623 2.623 0 001.611 2.413c.971.404 2.088.18 2.831-.568a2.589 2.589 0 00.72-1.845v-10.81h6.017l7.525 12.164a2.506 2.506 0 002.23 1.246 2.444 2.444 0 001.814-.686 2.312 2.312 0 00.68-1.686 3.05 3.05 0 00-.485-1.62l-6.608-10.688zm.816-9.433c0 1.72-.623 3.138-1.86 4.22-1.236 1.083-2.842 1.646-4.767 1.646h-5.377V9.164h5.377c1.92 0 3.522.603 4.758 1.79 1.237 1.189 1.869 2.738 1.869 4.608zm74.835-11.25a2.533 2.533 0 00-1.83.725 2.515 2.515 0 00-.744 1.873v23.497L301.14 5.261a2.854 2.854 0 00-.881-.667 2.46 2.46 0 00-2.899.446 2.547 2.547 0 00-.722 1.874v30.123a2.547 2.547 0 00.722 1.874c1.033.981 2.65.97 3.668-.027a2.573 2.573 0 00.72-1.843V13.593l18.73 25.115c.22.325.536.572.903.707.349.142.72.217 1.097.22a2.452 2.452 0 001.81-.728 2.553 2.553 0 00.723-1.874V6.916a2.555 2.555 0 00-.724-1.874 2.458 2.458 0 00-1.809-.73zm33.81 31.138a2.591 2.591 0 00-1.826-.653h-17.381V24.24h12.392a2.54 2.54 0 001.802-.677 2.445 2.445 0 000-3.484 2.547 2.547 0 00-1.802-.677h-12.392V9.158h17.381a2.576 2.576 0 001.826-.655c.472-.444.73-1.07.708-1.72a2.385 2.385 0 00-.704-1.784 2.525 2.525 0 00-1.83-.68H334.5a2.533 2.533 0 00-1.83.725 2.515 2.515 0 00-.743 1.874v30.12c-.01.69.258 1.356.742 1.845.485.49 1.145.76 1.831.753h19.958a2.534 2.534 0 001.832-.682 2.383 2.383 0 00.703-1.782 2.257 2.257 0 00-.709-1.722h.006zm-88.075-.01a2.7 2.7 0 013.11-1.54c5.322 1.269 10.828-1.206 13.446-6.043 2.618-4.837 1.7-10.84-2.24-14.66a12.061 12.061 0 00-14.626-1.687c-4.696 2.824-6.936 8.463-5.47 13.771a2.733 2.733 0 01-1.41 3.185c-1.646.813-3.334 0-3.821-1.774a17.817 17.817 0 013.107-15.602c4.34-5.654 11.852-8.09 18.668-6.07 9.13 2.668 14.491 12.177 12.089 21.445-2.402 9.268-11.693 14.922-20.953 12.751a2.727 2.727 0 01-1.833-1.437 2.763 2.763 0 01-.067-2.34z" fill="#FFF"/></g></svg>