<svg width="1440" height="613" xmlns="http://www.w3.org/2000/svg" xmlns:xlink="http://www.w3.org/1999/xlink"><defs><path d="M0 0h1440v613c-240.5-40-480.667-60-720.5-60-239.833 0-479.667 20-719.5 60V0z" id="a"/></defs><g fill="none" fill-rule="evenodd"><mask id="b" fill="#fff"><use xlink:href="#a"/></mask><use fill="#F9F9FE" xlink:href="#a"/><g opacity=".1" mask="url(#b)" stroke="#8A66D1" stroke-linecap="round" stroke-linejoin="round"><path d="M-18.127 561.589L24.44 328.072l157.1 361.796 208.648-361.796 57.053-195.35V-107L569.91 37.203l134.535 95.52v171.039l65.863 187.448 278.764-22.228 189.413 185.146 56.892-326.056 134.717 227.62"/><path d="M-13.46 379.656l37.901-51.584L322.02 444.43l246.165 156.693L770.31 491.21l-46.17 194.032 324.934-216.26 78.025-229.292L912.911 258 890.388 37.07l-185.942 95.652H447.24l257.205 171.039-314.258 24.31-171.89-136.46L-91 197.425 218.297 37.071 447.241-107"/><path d="M-13.46 291.434l37.901 36.638 193.856-136.46V37.073l228.944 95.65 122.67-95.52 320.477-.13 236.71 202.618 84.136-202.487 84.144 290.869 144.54-220.95"/><path d="M447.24 132.723l-228.943 58.89L322.02 444.43l45.609 278.595 200.556-121.902-177.996-273.051"/><path d="M568.184 601.123l136.262-297.361 344.627 165.22L912.91 257.999 704.446 132.723m0 171.039l208.465-45.763m527.006 86.396l-144.539-16.323-168.28-88.382 111.388 414.438"/><path d="M568.184 601.123l155.492 83.98 209.838 52.668 115.559-268.79m390.844-124.586l-144.539-16.323-168.28-88.382 111.388 414.438m50.036-720.85L890.388 37.07l320.846.132z"/><path d="M1430.095 343.608l-134.717-15.536-168.28-88.382 111.388 414.438"/></g></g></svg>