<?xml version="1.0" encoding="UTF-8"?>
<svg width="135px" height="44px" viewBox="0 0 135 44" version="1.1" xmlns="http://www.w3.org/2000/svg" xmlns:xlink="http://www.w3.org/1999/xlink">
    <title>Logo/statsdronelogologo-white</title>
    <g id="Logo/statsdronelogologo-white" stroke="none" stroke-width="1" fill="none" fill-rule="evenodd">
        <g id="Statsdrone-Vertical-Logo-Inverse-RGB" fill-rule="nonzero">
            <path d="M26.6362774,25.5329754 L26.5973106,25.4926169 C26.5499937,25.4432125 26.4985019,25.3861539 26.4442266,25.322137 C24.7859617,23.3769273 24.7806599,20.5169117 26.4317016,18.5655674 C26.4866726,18.5008546 26.5381645,18.4431002 26.5861772,18.3936958 C27.261168,17.7392025 27.2807096,16.662398 26.6299108,15.9838445 C25.9791119,15.305291 24.9024302,15.2798715 24.2203341,15.9269565 C24.2064174,15.9408732 24.1938923,15.9540941 24.1799756,15.9659233 C24.1305712,16.013936 24.0735127,16.064732 24.0094957,16.1190073 C22.0543133,17.7684566 19.1948877,17.7684566 17.2397052,16.1190073 C17.1756883,16.0654279 17.1186297,16.0146318 17.0692254,15.9666191 C17.0560045,15.9547899 17.0427836,15.941569 17.0288669,15.9276523 C16.3467708,15.2805673 15.2700891,15.3059869 14.6192902,15.9845404 C13.9684914,16.6630939 13.988033,17.7398984 14.6630238,18.3943917 C14.8675996,18.6073176 15.1751592,18.966369 15.5147273,19.3748249 C16.7507667,20.8618764 16.7507667,23.0188696 15.5147273,24.5059211 C15.1723759,24.9178561 14.8613371,25.2782993 14.6539779,25.4933127 C14.6421487,25.5065336 14.6289278,25.5197545 14.6150111,25.5336712 C13.9736367,26.2048424 13.985673,27.265373 14.6421149,27.9218148 C15.2985568,28.5782567 16.3590873,28.590293 17.0302585,27.9489187 C17.0441753,27.935002 17.0573962,27.9217811 17.070617,27.9099519 L17.1151506,27.86681 C19.0600426,25.9421413 22.1919417,25.9421413 24.1368338,27.86681 L24.1813673,27.9099519 C24.195284,27.9217811 24.2078091,27.935002 24.2217258,27.9489187 C24.892897,28.590293 25.9534276,28.5782567 26.6098694,27.9218148 C27.2663113,27.265373 27.2783476,26.2048424 26.6369733,25.5336712 L26.6362774,25.5329754 Z" id="Path" fill="#FFFFFF"></path>
            <path d="M27.8866951,11.7199307 C26.2201674,8.49403407 27.2980177,4.47349244 30.3541303,2.512626 C32.7507233,0.971748195 35.8371791,1.01639778 38.1881969,2.62595593 C40.5392147,4.23551408 41.6973411,7.09679818 41.1277624,9.88848983 C41.0525975,10.2639645 40.8108733,10.5849344 40.4707628,10.760877 C40.1306522,10.9368196 39.7290157,10.9486666 39.379126,10.7930769 L39.379126,10.7930769 C38.8398495,10.5524943 38.5401279,9.96954162 38.6582396,9.39096694 C39.0712133,7.37225572 38.0807716,5.327116 36.2408909,4.39944072 C34.4010103,3.47176544 32.1677645,3.89150884 30.7902584,5.42389893 C29.4127524,6.95628902 29.2324455,9.2214735 30.3501873,10.9524834 C31.4679292,12.6834933 33.6066516,13.451242 35.5701185,12.8263103 C36.1315758,12.6507711 36.7395359,12.8896125 37.0313746,13.4003752 L37.0313746,13.4003752 C37.2220852,13.7294806 37.2538463,14.1271463 37.1177907,14.4823501 C36.981735,14.8375539 36.6924382,15.1122431 36.3306675,15.2297286 C33.036939,16.2704278 29.4722732,14.7887488 27.8866951,11.7199307 L27.8866951,11.7199307 Z" id="Path" fill="#F16622"></path>
            <path d="M41.0720955,33.8266472 C41.8535195,37.4067245 39.7500067,41.0445562 36.2617797,42.1571983 C33.5228821,43.0338482 30.5253214,42.1842059 28.6537926,40.0007556 C26.7822637,37.8173052 26.4010676,34.7250647 27.6862943,32.1524652 C27.8585504,31.8069531 28.1782569,31.5582471 28.5555249,31.4762735 C28.9327929,31.3942999 29.3268788,31.4879115 29.6269815,31.7307885 L29.6269815,31.7307885 C30.090135,32.1060537 30.2299351,32.7529549 29.9630704,33.2859824 C29.0331862,35.145812 29.4643405,37.3980125 31.0153834,38.7829012 C32.5664264,40.1677898 34.8528914,40.3420856 36.595931,39.2083028 C38.3389707,38.0745201 39.1065271,35.9136965 38.4692966,33.9344067 C37.8320661,31.9551169 35.948003,30.6479798 33.8708865,30.7440927 C33.2781984,30.7676153 32.7487541,30.3761738 32.5975062,29.8026263 L32.5975062,29.8026263 C32.4967948,29.432069 32.5692636,29.0358383 32.7946145,28.7249163 C33.0199654,28.4139942 33.3739669,28.2218136 33.7574652,28.2022031 C37.2393173,28.047803 40.3269315,30.4219645 41.0720955,33.8266472 L41.0720955,33.8266472 Z" id="Path" fill="#F16622"></path>
            <path d="M5.47241908,28.5703004 C9.03301297,27.7067677 12.7181615,29.7226052 13.9115206,33.1871737 C14.8516972,35.9056289 14.0712318,38.9227965 11.9307954,40.8443747 C9.790359,42.7659529 6.70679995,43.2177157 4.10510093,41.9908934 C3.75536624,41.8270883 3.49892947,41.5133403 3.40800392,41.1380018 C3.31707836,40.7626633 3.4015013,40.3663422 3.63749899,40.0606438 L3.63749899,40.0606438 C4.0019993,39.58914 4.64523022,39.4343363 5.18434289,39.6883714 C7.06519248,40.5749618 9.30680775,40.0918016 10.6554294,38.5091275 C12.004051,36.9264533 12.1253889,34.6365713 10.9515774,32.9202367 C9.77776598,31.2039021 7.59976418,30.4865522 5.63575167,31.1694083 C3.67173915,31.8522645 2.4085463,33.7660635 2.55269034,35.8403971 C2.59054134,36.4325215 2.21132943,36.971234 1.64114491,37.1353483 L1.64114491,37.1353483 C1.273231,37.2435994 0.876102135,37.1797849 0.560623832,36.9617199 C0.24514553,36.7436548 0.0451124524,36.3946986 0.0163673545,36.0122687 C-0.217900587,32.534523 2.08527823,29.3930235 5.47241908,28.5703004 L5.47241908,28.5703004 Z" id="Path" fill="#F16622"></path>
            <path d="M11.9680501,13.7608183 C9.25915974,16.2275577 5.05839654,16.2275577 2.34881033,13.7608183 C0.220028241,11.8266165 -0.542606854,8.80517651 0.413239084,6.09239036 C1.36908502,3.37960422 3.85732511,1.50360503 6.72840344,1.33109611 C7.11398022,1.30689082 7.48967823,1.45913794 7.74962989,1.74493592 C8.00958155,2.03073389 8.12564131,2.41913872 8.0651048,2.80070219 L8.0651048,2.80070219 C7.97144657,3.38849131 7.48250549,3.8326152 6.88844577,3.86950661 C4.81268939,3.99277681 3.07679192,5.49124284 2.65171822,7.52674584 C2.22664452,9.56224884 3.21776816,11.6301982 5.07070949,12.5738975 C6.92365082,13.5175969 9.17907529,13.1031082 10.5754234,11.5622734 C11.9717716,10.0214385 12.1628959,7.73622259 11.0418921,5.98484869 C10.7250619,5.4832766 10.7991152,4.82894601 11.2200262,4.41086718 L11.2200262,4.41086718 C11.4907325,4.13873668 11.8700012,4.00365204 12.2517842,4.04338451 C12.6335673,4.08311697 12.976893,4.29340258 13.1857635,4.61544303 C15.0591285,7.55412104 14.5450877,11.4147147 11.9680501,13.7608183 Z" id="Path" fill="#F16622"></path>
            <path d="M77.7788472,2.27186667 C78.0285414,2.02023745 78.1638936,1.67707674 78.1532071,1.32274608 C78.1645406,0.96875349 78.0288922,0.625849808 77.7784534,0.375410993 C77.5280146,0.124972178 77.1851109,-0.0106761584 76.8311183,0.000657278609 L64.7159141,0.000657278609 C64.3619215,-0.0106761584 64.0190178,0.124972178 63.768579,0.375410993 C63.5181402,0.625849808 63.3824918,0.96875349 63.3938253,1.32274608 C63.3824918,1.67673867 63.5181402,2.01964235 63.768579,2.27008116 C64.0190178,2.52051998 64.3619215,2.65616832 64.7159141,2.64483488 L69.3745375,2.64483488 L69.3745375,16.7424765 C69.363166,17.2549806 69.6300803,17.7334962 70.0721236,17.9930872 C70.5141669,18.2526782 71.0620906,18.2526782 71.5041339,17.9930872 C71.9461772,17.7334962 72.2130915,17.2549806 72.20172,16.7424765 L72.20172,2.64483488 L76.8339017,2.64483488 C77.1865793,2.65465484 77.5279503,2.51991637 77.7788472,2.27186667 Z" id="Path" fill="#FFFFFF"></path>
            <path d="M92.15204,16.1788492 L85.7691344,0.946994525 C85.537421,0.328396134 85.0795608,0.000657278609 84.4373039,0.000657278609 C83.8333181,0.000657278609 83.3754579,0.322133608 83.1110401,0.935861146 L76.7462263,16.1343157 C76.6675452,16.3279692 76.6244098,16.534218 76.6188193,16.7431723 C76.6152477,17.1106777 76.7559067,17.4649486 77.0106441,17.7298681 C77.265961,18.0086168 77.6291739,18.163591 78.0070815,18.155024 C78.2795646,18.1561692 78.5461504,18.0757088 78.7725014,17.9240064 C79.0099278,17.7670032 79.1980912,17.5460318 79.3152536,17.2866204 L80.5427087,14.2597329 L88.3569493,14.2597329 L89.5656168,17.2817496 C89.6692571,17.5490823 89.8564448,17.7758063 90.0993232,17.9281814 C90.328999,18.075583 90.596012,18.1542867 90.868918,18.155024 C91.2456296,18.1632137 91.6091647,18.0162901 91.8744014,17.7486557 C92.1408698,17.491998 92.2896535,17.1367801 92.2857197,16.7668308 C92.2777475,16.5642751 92.2324519,16.3649272 92.15204,16.1788492 Z M81.5287086,11.8444854 L84.4846208,4.64397231 L87.3744286,11.8444854 L81.5287086,11.8444854 Z" id="Shape" fill="#FFFFFF"></path>
            <path d="M104.096764,0.000657278609 L91.9801685,0.000657278609 C91.6261759,-0.0106761584 91.2832722,0.124972178 91.0328334,0.375410993 C90.7823946,0.625849808 90.6467462,0.96875349 90.6580797,1.32274608 C90.6467462,1.67673867 90.7823946,2.01964235 91.0328334,2.27008116 C91.2832722,2.52051998 91.6261759,2.65616832 91.9801685,2.64483488 L96.6353127,2.64483488 L96.6353127,16.7424765 C96.6239413,17.2549806 96.8908555,17.7334962 97.3328988,17.9930872 C97.7749421,18.2526782 98.3228658,18.2526782 98.7649091,17.9930872 C99.2069524,17.7334962 99.4738667,17.2549806 99.4624952,16.7424765 L99.4624952,2.64483488 L104.096764,2.64483488 C104.450698,2.65596154 104.79348,2.52024667 105.043873,2.2698542 C105.294265,2.01946173 105.42998,1.67667965 105.418853,1.32274608 C105.42998,0.968812508 105.294265,0.626030427 105.043873,0.37563796 C104.79348,0.125245493 104.450698,-0.0104693803 104.096764,0.000657278609 L104.096764,0.000657278609 Z" id="Path" fill="#FFFFFF"></path>
            <path d="M62.9540568,12.9432108 C62.9540568,14.0565487 62.6451055,15.0209777 62.0445988,15.8197977 C61.4281207,16.6230031 60.5999198,17.2384308 59.6530098,17.5969634 C58.6490114,17.9891968 57.5794308,18.1863926 56.5015676,18.1779866 C55.0403115,18.1779866 53.6855184,17.8412019 52.4803301,17.1766783 C51.9475906,16.8879414 51.4592046,16.5239954 51.0302075,16.0960447 C50.998199,16.0633404 50.9606238,16.0313319 50.9286154,15.9993234 C50.8966069,15.967315 50.8548567,15.9158231 50.8228483,15.8740729 C50.5149779,15.4741515 50.4616534,14.9338403 50.6854075,14.4814517 C50.9091617,14.0290631 51.3709531,13.7435314 51.8756485,13.7455099 C52.2077314,13.7423588 52.5283324,13.8669124 52.7711897,14.0934281 C52.8498192,14.1671867 53.0620492,14.4350836 53.2930668,14.6104344 C53.5197048,14.7839241 53.7622394,14.9355956 54.0174323,15.0634237 C54.7875724,15.450687 55.6396181,15.6468723 56.5015676,15.6354011 C57.5592386,15.6354011 58.4596507,15.3953376 59.188887,14.9110356 C59.8909858,14.4441295 60.2368164,13.8213561 60.2368164,13.0127944 C60.2368164,12.232762 59.9417818,11.5814593 59.3364043,11.0233987 C58.7310268,10.4653381 57.7693812,10.1118533 56.5015676,9.98312356 C54.6318557,9.80290198 53.1358078,9.2441455 52.0551742,8.3256417 C50.9613197,7.39252534 50.4025632,6.20125375 50.4025632,4.7935771 C50.4025632,3.80061883 50.6934227,2.92804022 51.2612251,2.20297889 C51.8290274,1.47791755 52.5979265,0.933077801 53.5720971,0.557326247 C54.533047,0.187837219 55.6227265,0.000657278609 56.8091272,0.000657278609 C58.1159076,0.000657278609 59.2327247,0.273425073 60.1380076,0.808523119 C60.2486456,0.873235887 60.3592835,0.947690361 60.4706173,1.02075316 C60.5255884,1.05832832 60.5812553,1.09520764 60.6320513,1.13208696 L60.6459681,1.14600368 C60.9365693,1.38767134 61.1041937,1.74639278 61.1031325,2.12434939 C61.1038714,2.46674095 60.9684699,2.79538236 60.7267538,3.03788155 C60.4850377,3.28038074 60.1568359,3.41684452 59.8144438,3.41721307 C59.5982798,3.41852621 59.3853586,3.36463726 59.1958454,3.26064993 C59.1589661,3.24186235 59.1262618,3.21889975 59.0900783,3.19593716 C59.0024029,3.14514111 58.9098567,3.09434507 58.8082646,3.03380732 C58.2515957,2.71093932 57.5244468,2.54672197 56.6567391,2.54672197 C55.5809763,2.54672197 54.7083977,2.75547284 54.05292,3.16532036 C53.4266674,3.55777199 53.1198036,4.11652846 53.1198036,4.86455239 C53.1198036,5.56665113 53.3981381,6.13862849 53.9694196,6.61458046 C54.5407012,7.09053243 55.6227265,7.4224463 57.1646995,7.57970529 C58.9787445,7.75923103 60.4100796,8.3179875 61.4169546,9.24136216 C62.4370505,10.176566 62.9540568,11.4235045 62.9540568,12.9432108 Z" id="Path" fill="#FFFFFF"></path>
            <path d="M119.335577,12.9432108 C119.335577,14.0565487 119.02593,15.0209777 118.426119,15.8197977 C117.809511,16.6228708 116.981351,17.238268 116.03453,17.5969634 C115.029926,17.9896957 113.95961,18.1871325 112.881001,18.1786824 C111.419745,18.1786824 110.064256,17.8418977 108.859067,17.1773741 C108.326542,16.88863 107.838387,16.5246813 107.409641,16.0967405 C107.376936,16.0640362 107.340057,16.0320277 107.308049,16.0000193 C107.27604,15.9680108 107.23429,15.9165189 107.201586,15.8747688 C106.893715,15.4748473 106.840391,14.9345361 107.064145,14.4821476 C107.287899,14.029759 107.74969,13.7442272 108.254386,13.7462058 C108.586521,13.7427683 108.907225,13.8673617 109.149927,14.0941239 C109.228556,14.1678825 109.440786,14.4357795 109.671804,14.6111302 C109.898689,14.7846197 110.141454,14.9362898 110.396865,15.0641196 C111.166949,15.451538 112.019034,15.6477322 112.881001,15.6360969 C113.937976,15.6360969 114.838388,15.3960334 115.56832,14.9117314 C116.269723,14.4448253 116.61625,13.8220519 116.61625,13.0134903 C116.61625,12.2334579 116.320519,11.5821552 115.715837,11.0240945 C115.111156,10.4660339 114.150902,10.1139408 112.881001,9.98521107 C111.010593,9.80498949 109.515241,9.24623301 108.434607,8.32772921 C107.340057,7.39461285 106.781301,6.20334126 106.781301,4.79566461 C106.781301,3.80270633 107.072856,2.93012773 107.640658,2.20506639 C108.208461,1.48000506 108.978751,0.933077801 109.952922,0.557326247 C110.913176,0.187837219 112.002855,0.000657278609 113.189256,0.000657278609 C114.496037,0.000657278609 115.61355,0.273425073 116.518137,0.808523119 C116.62947,0.873235887 116.740108,0.947690361 116.850746,1.02075316 C116.906413,1.05832832 116.961384,1.09520764 117.01218,1.13208696 C117.01716,1.13637176 117.021812,1.14102369 117.026097,1.14600368 C117.316698,1.38767134 117.484323,1.74639278 117.483261,2.12434939 C117.484185,2.46667682 117.348939,2.79532017 117.107333,3.03783951 C116.865728,3.28035885 116.537597,3.41684483 116.195269,3.41721307 C115.979097,3.41858782 115.766161,3.36469501 115.57667,3.26064993 C115.539791,3.24186235 115.507087,3.21889975 115.470207,3.19593716 C115.382532,3.14514111 115.289986,3.09434507 115.191873,3.03380732 C114.635204,2.71093932 113.908751,2.54672197 113.040347,2.54672197 C111.964584,2.54672197 111.092006,2.75547284 110.436528,3.16532036 C109.810276,3.55777199 109.504108,4.11652846 109.504108,4.86455239 C109.504108,5.56665113 109.782442,6.13862849 110.353724,6.61458046 C110.925005,7.09053243 112.006335,7.4224463 113.548308,7.57970529 C115.363048,7.75923103 116.794384,8.3179875 117.800563,9.24136216 C118.817875,10.176566 119.335577,11.4235045 119.335577,12.9432108 Z" id="Path" fill="#FFFFFF"></path>
            <path d="M61.1142658,27.0060606 C59.7559935,26.2343783 58.1847954,25.8433183 56.444509,25.8433183 L52.3042836,25.8433183 C51.9513421,25.8359029 51.6100933,25.969947 51.3565547,26.2155907 C51.097877,26.4676595 50.9572046,26.8169414 50.9689739,27.1779322 L50.9689739,42.6644629 C50.9642486,43.0200365 51.1034148,43.3624301 51.3548655,43.6138809 C51.6063163,43.8653317 51.9487099,44.0044978 52.3042836,43.9998891 L56.444509,43.9998891 C58.1840995,43.9998891 59.7566894,43.6080168 61.1142658,42.8370302 C62.4597923,42.0785012 63.5650524,40.9570866 64.303979,39.600696 C65.0589613,38.228507 65.4423671,36.6496547 65.4423671,34.9100641 C65.4423671,33.1704736 65.0589613,31.5951004 64.3032832,30.2298698 C63.5621278,28.8785929 62.4574214,27.7618342 61.1142658,27.0060606 Z M56.444509,41.6040085 L53.6388974,41.6040085 L53.6388974,28.2390824 L56.444509,28.2390824 C57.6782266,28.2390824 58.7964354,28.5243752 59.7678228,29.0886984 C60.7346506,29.6475241 61.5244505,30.4674691 62.0466864,31.4545415 C62.5887428,32.4662874 62.8642939,33.6283338 62.8642939,34.9086725 C62.8642939,36.1890111 62.5859594,37.3552326 62.0459905,38.3739368 C61.5270428,39.3665704 60.7370501,40.1915505 59.7678228,40.7530008 C58.7978271,41.3180198 57.6789225,41.6040085 56.444509,41.6040085 Z" id="Shape" fill="#FFFFFF"></path>
            <path d="M76.602884,36.4624747 C77.4795769,36.0457428 78.2246578,35.395753 78.7564971,34.5837169 C79.3187328,33.7250551 79.6033298,32.7286176 79.6033298,31.622238 C79.6033298,30.5040292 79.3465662,29.4936751 78.83791,28.6210965 C78.3336126,27.7499155 77.5916875,27.040332 76.6989094,26.575338 C75.7887557,26.0938193 74.7456972,25.8495808 73.5989591,25.8495808 L69.4844796,25.8495808 C69.1333873,25.841237 68.7934017,25.9729251 68.539534,26.2155907 C68.2808564,26.4676595 68.140184,26.8169414 68.1519533,27.1779322 L68.1519533,42.6644629 C68.1585619,43.2053181 68.4872109,43.6900672 68.9871956,43.8964245 C69.4871803,44.1027818 70.0620576,43.9909427 70.4482128,43.6121918 C70.6941107,43.3587664 70.8284108,43.0175039 70.821181,42.6644629 L70.821181,37.1144732 L73.9343522,37.1144732 L77.8268599,43.3602991 C78.0982361,43.7847592 78.4858168,43.9997726 78.9791647,43.9997726 C79.3681371,43.9997726 79.683351,43.8814804 79.9164561,43.6476794 C80.1470045,43.4181472 80.2728454,43.1037967 80.2643742,42.77858 C80.2615266,42.4832418 80.1746382,42.1948205 80.0138732,41.9470557 L76.602884,36.4624747 Z M77.0252566,31.6194547 C77.0252566,32.501775 76.7030845,33.2303155 76.067786,33.7862887 C75.4324875,34.3422618 74.5974841,34.630338 73.6017425,34.630338 L70.8183976,34.630338 L70.8183976,28.3302369 L73.6017425,28.3302369 C74.5953966,28.3302369 75.4234417,28.639884 76.063611,29.2508282 C76.7037803,29.8617724 77.0287358,30.6550257 77.0287358,31.6159755 L77.0252566,31.6194547 Z" id="Shape" fill="#FFFFFF"></path>
            <path d="M115.740888,25.8433183 C115.388313,25.8356526 115.047404,25.9697605 114.79455,26.2155907 C114.536419,26.4674004 114.396023,26.8161178 114.407665,27.1765405 L114.407665,39.2374695 L104.701446,26.3269245 C104.573216,26.1840893 104.418415,26.0675745 104.245673,25.9838772 C103.746081,25.7310852 103.140938,25.8248516 102.741275,26.2169824 C102.490426,26.4720741 102.355335,26.8189843 102.367611,27.1765405 L102.367611,42.6428919 C102.355335,43.0004482 102.490426,43.3473583 102.741275,43.6024501 C103.276284,44.1056896 104.112262,44.0998693 104.640212,43.5892292 C104.885256,43.3359194 105.019017,42.9952551 105.011789,42.6428919 L105.011789,30.6049255 L114.706179,43.5001622 C114.820277,43.6671102 114.983798,43.7941308 115.173781,43.8633887 C115.35407,43.9362101 115.546454,43.9744508 115.740888,43.9761141 C116.091203,43.9857467 116.430004,43.8505788 116.677483,43.6024501 C116.928473,43.3474493 117.063589,43.0004762 117.051147,42.6428919 L117.051147,27.1765405 C117.063341,26.8189983 116.928262,26.4721195 116.677483,26.2169824 C116.429865,25.9690644 116.091159,25.8339343 115.740888,25.8433183 Z" id="Path" fill="#FFFFFF"></path>
            <path d="M133.233514,41.8280677 C132.993451,41.6054002 132.676845,41.4926747 132.289264,41.4926747 L123.296277,41.4926747 L123.296277,36.0714148 L129.707712,36.0714148 C130.052209,36.0814985 130.387027,35.9566597 130.640828,35.7234967 C130.882414,35.4885943 131.018712,35.1659606 131.018712,34.8289992 C131.018712,34.4920378 130.882414,34.1694042 130.640828,33.9345018 C130.387027,33.7013387 130.052209,33.5764999 129.707712,33.5865837 L123.296277,33.5865837 L123.296277,28.3260619 L132.289264,28.3260619 C132.675453,28.3260619 132.993451,28.2126406 133.23421,27.989973 C133.477946,27.761969 133.611367,27.4398306 133.60022,27.106261 C133.612731,26.7633506 133.480396,26.4309982 133.235602,26.1905406 C132.995538,25.959523 132.678933,25.8426225 132.289264,25.8426225 L121.963751,25.8426225 C121.610965,25.8349259 121.269828,25.9690247 121.016718,26.2148948 C120.75844,26.4666065 120.618017,26.8153913 120.629833,27.1758447 L120.629833,42.6428919 C120.624335,42.9983893 120.763083,43.3409509 121.014422,43.5924212 C121.265761,43.8438914 121.608251,43.9828184 121.963751,43.9776527 L132.289264,43.9776527 C132.676845,43.9776527 132.995538,43.8599095 133.236297,43.6295877 C133.481567,43.3883482 133.613705,43.0548449 133.60022,42.7110839 C133.611256,42.3777374 133.477836,42.0558569 133.23421,41.8280677 L133.233514,41.8280677 Z" id="Path" fill="#FFFFFF"></path>
            <path d="M87.6673756,41.8204135 L87.6673756,41.8204135 C87.94318,41.2041694 88.6191656,40.872173 89.2754531,41.0306394 C92.0275862,41.6818903 94.8752438,40.4114517 96.2290549,37.9283972 C97.5828659,35.4453427 97.1081657,32.3634881 95.0698999,30.4029175 C93.0316342,28.442347 89.9336662,28.0877173 87.5050734,29.536959 C85.0764807,30.9862007 83.9176161,33.8810583 84.6752799,36.605817 C84.859026,37.2556632 84.5521916,37.943991 83.9460436,38.2417279 L83.9460436,38.2417279 C83.0950359,38.6592296 82.2210656,38.2417279 81.9691729,37.3308783 C81.2239323,34.6317296 81.7541595,31.6758174 83.5751629,29.3190202 C85.8227138,26.4118165 89.7082632,25.1683572 93.2347612,26.2030656 C95.7518566,26.9326204 97.8313289,28.7135357 98.9392305,31.0885248 C100.047132,33.463514 100.07554,36.2012242 99.0171601,38.5986919 C97.2239901,42.6484586 92.8109969,44.7387506 88.6492005,43.7611007 C88.2386481,43.6686773 87.8908518,43.397675 87.7008772,43.0221687 C87.5109025,42.6466624 87.4986158,42.2059203 87.6673756,41.8204135 L87.6673756,41.8204135 Z" id="Path" fill="#FFFFFF"></path>
        </g>
    </g>
</svg>