<?xml version="1.0" encoding="UTF-8"?>
<svg width="1533px" height="847px" viewBox="0 0 1533 847" version="1.1" xmlns="http://www.w3.org/2000/svg" xmlns:xlink="http://www.w3.org/1999/xlink">
    <title>Group 31</title>
    <g id="🎨-UI" stroke="none" stroke-width="1" fill="none" fill-rule="evenodd" stroke-linecap="round" stroke-linejoin="round">
        <g id="Homepage---Dropdown" transform="translate(77.000000, -59.000000)" stroke="#8A66D1">
            <g id="Group-31" transform="translate(-76.000000, 60.000000)">
                <polyline id="Path-2" points="72.8726246 668.589007 115.441147 435.071511 272.539753 796.867505 481.188449 435.071511 538.240839 239.722722 538.240839 -4.42350326e-14 660.911005 144.202936 795.445922 239.722722 795.445922 410.761995 861.309083 598.21005 1140.07285 575.981824 1329.48609 761.127737 1386.37816 435.071511 1521.09537 662.692068"></polyline>
                <polyline id="Path-3" points="77.5397535 486.655514 115.441147 435.071511 413.018735 551.429708 659.184249 708.122523 861.309083 598.21005 815.139352 792.241867 1140.07285 575.981824 1218.09797 346.69047 1003.91138 364.998882 981.388396 144.071333 795.445922 239.722722 538.240839 239.722722 795.445922 410.761995 481.188449 435.071511 309.297295 298.612747 0 304.42439 309.297295 144.071333 538.240839 0"></polyline>
                <polyline id="Path-4" points="77.5397535 398.433752 115.441147 435.071511 309.297295 298.612747 309.297295 144.071333 538.240839 239.722722 660.911005 144.202936 981.388396 144.071333 1218.09797 346.69047 1302.23419 144.202936 1386.37816 435.071511 1530.91731 214.122102"></polyline>
                <polyline id="Path-5" points="538.240839 239.722722 309.297295 298.612747 413.018735 551.429708 458.627556 830.025004 659.184249 708.122523 481.188449 435.071511"></polyline>
                <polyline id="Path-6" points="659.184249 708.122523 795.445922 410.761995 1140.07285 575.981824 1003.91138 364.998882 795.445922 239.722722"></polyline>
                <line x1="795.445922" y1="410.761995" x2="1003.91138" y2="364.998882" id="Path-7"></line>
                <polyline id="Path-8" points="1530.91731 451.394654 1386.37816 435.071511 1218.09797 346.69047 1329.48609 761.127737"></polyline>
                <polyline id="Path-9" points="659.184249 708.122523 814.676419 792.103112 1024.51401 844.770539 1140.07285 575.981824"></polyline>
                <polyline id="Path-10" points="1530.91731 451.394654 1386.37816 435.071511 1218.09797 346.69047 1329.48609 761.127737"></polyline>
                <polygon id="Path-11" points="1379.52161 40.2778599 981.388396 144.071333 1302.23419 144.202936"></polygon>
                <polyline id="Path-12" points="1521.09537 450.607547 1386.37816 435.071511 1218.09797 346.69047 1329.48609 761.127737"></polyline>
            </g>
        </g>
    </g>
</svg>