<?xml version="1.0" encoding="UTF-8"?>
<svg width="360px" height="44px" viewBox="0 0 360 44" version="1.1" xmlns="http://www.w3.org/2000/svg" xmlns:xlink="http://www.w3.org/1999/xlink">
    <title>Logo/Statsdrone-Horizontal-Logo-RGB</title>
    <g id="Logo/Statsdrone-Horizontal-Logo-RGB" stroke="none" stroke-width="1" fill="none" fill-rule="evenodd">
        <g id="Statsdrone-Horizontal-Logo-RGB" fill-rule="nonzero">
            <path d="M28.1311819,25.758949 C28.1165917,25.7455378 28.1029247,25.7311414 28.0902757,25.7158594 C28.0382133,25.6634025 27.9842915,25.6034518 27.9266509,25.5285134 C26.1772563,23.4580762 26.1725351,20.415988 27.9154947,18.3400483 C27.9731352,18.2707303 28.027057,18.2089062 28.0772601,18.1527024 C28.7960922,17.4579126 28.8198176,16.3075306 28.1302522,15.5832523 C27.4406868,14.858974 26.2989551,14.8350689 25.580123,15.5298587 L25.5373574,15.5710748 C25.485295,15.6216582 25.4239357,15.6759886 25.3514202,15.7340658 C23.2862073,17.4879956 20.2673462,17.4879956 18.2021333,15.7340658 C18.1351959,15.6759886 18.0738366,15.6216582 18.016196,15.5710748 L17.9734305,15.5298587 C17.6144553,15.1850621 17.1298511,15.0053495 16.6346823,15.0333919 C15.9175727,15.0746334 15.2929359,15.5402529 15.0440069,16.2191201 C14.7950779,16.8979873 14.9692118,17.6609574 15.4874496,18.1620697 C15.7031368,18.3887583 16.0285269,18.7709441 16.3873858,19.2055868 C17.6928521,20.7876486 17.6928521,23.0827866 16.3873858,24.6648485 C16.0266676,25.1032381 15.6975586,25.4872973 15.4781527,25.7158594 L15.4372465,25.758949 C14.77287,26.4742674 14.7908406,27.5914657 15.4778745,28.2847154 C16.1649085,28.9779652 17.2736787,28.9977016 17.9845867,28.3293358 L18.0347898,28.2918666 L18.0812741,28.2450301 C20.1358771,26.1970918 23.4437075,26.1970918 25.4983106,28.2450301 L25.5447949,28.2918666 L25.5875605,28.3330827 C26.2920159,29.0428753 27.4341639,29.0428753 28.1386193,28.3330826 C28.8430748,27.6232899 28.8430748,26.4724886 28.1386194,25.7626959 L28.1311819,25.758949 Z" id="Path" fill="#362F8A"></path>
            <path d="M29.4513363,11.0560368 C27.9446828,8.11186437 28.5213956,4.52172918 30.8728702,2.2067461 C33.2243448,-0.108236981 36.799897,-0.605929448 39.6862154,0.979988583 C42.5725338,2.56590661 44.0936806,5.86403406 43.4356761,9.10951214 C43.3550166,9.50851606 43.0990803,9.84911648 42.7398059,10.0355774 C42.3805316,10.2220383 41.9567066,10.2342292 41.58746,10.0687235 L41.58746,10.0687235 C41.0146613,9.81259765 40.6976235,9.18777648 40.8269767,8.56995573 C41.2587475,6.42246258 40.2102872,4.2495394 38.2674057,3.26527094 C36.3245241,2.28100247 33.9681723,2.72903969 32.5149228,4.35904925 C31.0616732,5.9890588 30.8712708,8.39753957 32.0500998,10.2387929 C33.2289288,12.0800463 35.4851757,12.8982787 37.5582,12.2363165 C38.151126,12.0499238 38.7929396,12.3039195 39.1014791,12.8470643 L39.1014791,12.8470643 C39.3029938,13.1977137 39.3361517,13.6214249 39.1916689,13.9995625 C39.047186,14.3777001 38.7405919,14.6696207 38.3577301,14.793589 C34.8819456,15.8944938 31.1239125,14.3174419 29.4513363,11.0560368 L29.4513363,11.0560368 Z" id="Path" fill="#F16622"></path>
            <path d="M43.3761762,34.5848179 C44.0857341,37.8525243 42.594349,41.20396 39.7008782,42.8439356 C36.8074074,44.4839112 33.1903351,44.0278721 30.7871384,41.7200946 C28.3839417,39.4123172 27.7581413,35.7939475 29.244946,32.8031576 C29.4262618,32.4360889 29.7630375,32.1716989 30.1606195,32.0842965 C30.5582015,31.9968941 30.9736705,32.0959146 31.2902556,32.3535273 L31.2902556,32.3535273 C31.7799703,32.7522077 31.9278048,33.4408299 31.6453957,34.0077923 C30.6633883,35.9869981 31.118837,38.3836747 32.7570138,39.8573844 C34.3951907,41.3310941 36.8100512,41.5165579 38.6509877,40.3100476 C40.4919242,39.1035374 41.3026354,36.8041032 40.6296985,34.6977959 C39.9567616,32.5914887 37.9669733,31.2003854 35.7732025,31.3025164 C35.1467263,31.327812 34.5869648,30.9110422 34.4270168,30.3002154 L34.4270168,30.3002154 C34.3220883,29.9058771 34.3995436,29.4848834 34.637782,29.154642 C34.8760203,28.8244005 35.2495509,28.6202462 35.6542026,28.599114 C39.3308504,28.4352598 42.5906951,30.9621352 43.3761762,34.5848179 L43.3761762,34.5848179 Z" id="Path" fill="#F16622"></path>
            <path d="M5.77780689,28.990667 C9.00092389,28.2096366 12.3527665,29.6375459 14.0422179,32.5113662 C15.7316693,35.3851865 15.3637824,39.0330982 13.1351442,41.5057745 C10.906506,43.9784508 7.33811044,44.6978485 4.33679328,43.2795446 C3.96462868,43.1062576 3.6914534,42.7711193 3.59508983,42.3696041 C3.49872626,41.968089 3.58973898,41.5442161 3.84220022,41.2187389 L3.84220022,41.2187389 C4.22708822,40.7164598 4.90677424,40.551289 5.47658856,40.8215654 C7.46202501,41.7640165 9.82791279,41.2500707 11.2515603,39.5670585 C12.6752079,37.8840463 12.8039258,35.4489112 11.5657521,33.6230587 C10.3275784,31.7972062 8.02925376,31.0329665 5.95569741,31.7576013 C3.88214105,32.4822362 2.54704845,34.5162271 2.69682682,36.7224355 C2.73608828,37.3522455 2.33554546,37.9248892 1.73367191,38.0994284 L1.73367191,38.0994284 C1.34592313,38.2148109 0.92720241,38.1477127 0.5941116,37.9168187 C0.26102079,37.6859247 0.0491396916,37.3158983 0.0174711865,36.9097814 C-0.231302215,33.2092792 2.20066992,29.8658863 5.77780689,28.990667 L5.77780689,28.990667 Z" id="Path" fill="#F16622"></path>
            <path d="M12.6426098,13.2311236 C10.1874793,15.4785615 6.56433784,15.8489327 3.71124663,14.1441211 C0.858155424,12.4393096 -0.557044247,9.05837141 0.222654678,5.80981053 C1.0023536,2.56124966 3.79444202,0.205477415 7.10539878,0.00262427635 C7.51261446,-0.0229332477 7.90931345,0.139229342 8.18374926,0.443432323 C8.45818507,0.747635303 8.58065575,1.16095505 8.51666243,1.56696317 L8.51666243,1.56696317 C8.41764159,2.19284469 7.90059141,2.66553125 7.2727423,2.70415324 C5.0804278,2.83673897 3.2479968,4.43258135 2.80042288,6.59904308 C2.35284896,8.7655048 3.40108522,10.9655223 5.35879882,11.9685118 C7.31651241,12.9715013 9.69838822,12.5288228 11.1721197,10.8880893 C12.6458512,9.24735574 12.8461019,6.81530334 11.6608612,4.95230495 C11.3250318,4.41923565 11.4023734,3.7225632 11.8467984,3.27743193 L11.8467984,3.27743193 C12.1334206,2.98760844 12.5348373,2.84407661 12.9386625,2.88702151 C13.3424877,2.92996642 13.7053203,3.15477255 13.9255767,3.49850018 C15.9051012,6.62510984 15.3635206,10.7335559 12.6426098,13.2311236 Z" id="Path" fill="#F16622"></path>
            <path d="M109.153334,8.72170597 C109.635409,8.23180081 109.896869,7.56405559 109.87663,6.87447465 C109.899115,6.18457906 109.636983,5.51611578 109.152561,5.02802297 C108.668138,4.53993015 108.004701,4.2758122 107.319993,4.29846749 L83.9030571,4.29846749 C83.2186646,4.27692688 82.5558785,4.54140353 82.0717039,5.02924642 C81.5875293,5.5170893 81.3250414,6.18489698 81.34642,6.87447465 C81.3245169,7.56437222 81.5867731,8.23267754 82.0710076,8.7209357 C82.5552422,9.20919387 83.2183314,9.47392276 83.9030571,9.45235527 L92.9005601,9.45235527 L92.9005601,36.9097814 C92.8478637,37.9266014 93.3562827,38.8897487 94.2225252,39.414108 C95.0887677,39.9384673 96.1714699,39.9384673 97.0377124,39.414108 C97.903955,38.8897487 98.4123739,37.9266014 98.3596775,36.9097814 L98.3596775,9.45235527 L107.314415,9.45235527 C108.001077,9.47425617 108.666324,9.209937 109.153334,8.72170597 Z" id="Path" fill="#362F8A"></path>
            <path d="M136.936077,35.8063136 L124.597281,6.14195189 C124.149173,4.93731727 123.264111,4.31158171 122.02391,4.31158171 C120.854365,4.31158171 119.9786,4.93544381 119.457976,6.13071113 L107.156368,35.7313752 C107.006309,36.1064685 106.923826,36.5055147 106.912655,36.9097814 C106.905689,37.6255969 107.177382,38.3156914 107.669555,38.8319511 C108.163288,39.3746816 108.865352,39.6764802 109.595865,39.6600203 C110.125482,39.6636913 110.643887,39.5063386 111.083363,39.2085165 C111.542877,38.9031987 111.906618,38.4723694 112.132049,37.9664127 L114.504608,32.0725083 L129.597134,32.0725083 L131.934365,37.9589189 C132.134575,38.479738 132.496567,38.9213624 132.966317,39.2178838 C133.410133,39.505228 133.926273,39.6586429 134.453815,39.6600203 C135.181913,39.6753225 135.884332,39.3888399 136.396859,38.8675469 C136.910536,38.3673235 137.19761,37.676378 137.190929,36.9566179 C137.17702,36.5606373 137.090656,36.1706425 136.936077,35.8063136 Z M116.39559,27.364504 L122.115019,13.3416577 L127.693137,27.364504 L116.39559,27.364504 Z" id="Shape" fill="#362F8A"></path>
            <path d="M160.020185,4.29846749 L136.592093,4.29846749 C135.9077,4.27692688 135.244914,4.54140353 134.76074,5.02924642 C134.276565,5.5170893 134.014077,6.18489698 134.035456,6.87447465 C134.013553,7.56437222 134.275809,8.23267754 134.760043,8.7209357 C135.244278,9.20919387 135.907367,9.47392276 136.592093,9.45235527 L145.591455,9.45235527 L145.591455,36.9097814 C145.565545,37.910474 146.080586,38.8465299 146.936636,39.3545646 C147.792686,39.8625994 148.85492,39.8625994 149.71097,39.3545646 C150.56702,38.8465299 151.082061,37.910474 151.056151,36.9097814 L151.056151,9.45235527 L160.010888,9.45235527 C160.695614,9.47392276 161.358703,9.20919387 161.842938,8.7209357 C162.327172,8.23267754 162.589428,7.56437222 162.567525,6.87447465 C162.588904,6.18489698 162.326416,5.5170893 161.842241,5.02924642 C161.358067,4.54140353 160.695281,4.27692688 160.010888,4.29846749 L160.020185,4.29846749 Z" id="Path" fill="#362F8A"></path>
            <path d="M80.4985462,29.503995 C80.4985462,31.6697145 79.8998283,33.5506681 78.7395799,35.1056397 C77.5486959,36.6707538 75.9478095,37.8698094 74.1171801,38.5677933 C72.1754003,39.3322505 70.106841,39.7169241 68.0221574,39.7012365 C65.3059786,39.7311964 62.6275229,39.0590893 60.2425433,37.7490914 C59.2172529,37.1866253 58.2778859,36.4780243 57.4534847,35.6451961 C57.3921254,35.5814985 57.3196099,35.5196743 57.2675474,35.4578501 C57.215485,35.3960259 57.1243758,35.2967326 57.0611571,35.2161738 C56.4697137,34.4362107 56.3688111,33.3856411 56.8008455,32.5058823 C57.2328799,31.6261234 58.1229866,31.0696237 59.0971699,31.0702074 C59.7388671,31.0620081 60.3589584,31.3036023 60.8282456,31.7446529 C61.1384193,32.1052163 61.475314,32.4415321 61.8360254,32.7507008 C62.2683444,33.0868685 62.730854,33.3816551 63.2175391,33.6312269 C64.7057258,34.3859996 66.3525002,34.76836 68.0184387,34.7459354 C70.0637483,34.7459354 71.8022615,34.2775705 73.2116658,33.3333468 C74.5690076,32.4265922 75.2383817,31.2125903 75.2383817,29.6388841 C75.2383817,28.1195083 74.6675544,26.851176 73.4980091,25.7626959 C72.3284639,24.6742158 70.4690915,23.9829091 68.0221574,23.7393594 C64.4075375,23.3890224 61.514354,22.3005423 59.4281382,20.5113882 C57.3121724,18.6941322 56.2337364,16.3747891 56.2337364,13.632044 C56.198402,11.8093611 56.783738,10.0294701 57.8922966,8.58869033 C58.9818888,7.19483627 60.4805429,6.11572345 62.3640872,5.38694761 C64.365719,4.6403337 66.4866573,4.27135857 68.6208753,4.29846749 C71.145903,4.29846749 73.3046344,4.8286566 75.0543038,5.87217369 C75.2681316,5.99769549 75.4838188,6.14195189 75.6976467,6.28620829 C75.8036309,6.35739976 75.9114745,6.43046469 76.0100212,6.50165616 C76.0182274,6.51086088 76.0269169,6.51961622 76.0360524,6.5278846 C76.5971367,6.99895329 76.9208639,7.69732154 76.9192543,8.43319317 C76.9212295,9.10014775 76.6599135,9.74052192 76.1928971,10.2131852 C75.7258806,10.6858485 75.0914964,10.9520048 74.4295547,10.9529965 C74.011788,10.9549087 73.60039,10.8498295 73.2339782,10.6476226 C73.1633221,10.6120269 73.1001034,10.5670638 73.0294473,10.5221008 C72.858385,10.4228074 72.6798853,10.3235141 72.4846512,10.2073596 C71.4043558,9.57787708 70.0042484,9.25376854 68.3252351,9.25376854 C66.2464568,9.25376854 64.560006,9.65843585 63.291914,10.4584032 C62.0777438,11.2227747 61.4901822,12.3112549 61.4901822,13.7669331 C61.4901822,15.1345587 62.0256814,16.2492673 63.132008,17.1747564 C64.2383346,18.1002455 66.3264098,18.7484626 69.3069837,19.0482161 C72.8137601,19.4004266 75.5805062,20.4870332 77.5272691,22.2855546 C79.4982039,24.1177982 80.4985462,26.5458021 80.4985462,29.503995 Z" id="Path" fill="#362F8A"></path>
            <path d="M189.468925,29.503995 C189.468925,31.6697145 188.870207,33.5506681 187.711818,35.1056397 C186.519801,36.6703903 184.918437,37.8693215 183.087559,38.5677933 C181.145829,39.3324275 179.077236,39.7171074 176.992536,39.7012365 C174.278871,39.7299134 171.603134,39.0578461 169.22036,37.7490914 C168.189823,37.1878414 167.245379,36.4791898 166.416426,35.6451961 C166.355067,35.5814985 166.282551,35.5196743 166.230489,35.4578501 C166.178426,35.3960259 166.087317,35.2967326 166.024099,35.2161738 C165.431624,34.434869 165.331466,33.3821561 165.765833,32.5016686 C166.200199,31.6211812 167.093549,31.0660458 168.069408,31.0702074 C168.711105,31.0620081 169.331197,31.3036023 169.800484,31.7446529 C170.110658,32.1052163 170.447552,32.4415321 170.808264,32.7507008 C171.246998,33.0886124 171.716401,33.3840552 172.210231,33.6331003 C173.698417,34.3878731 175.345192,34.7702334 177.01113,34.7478089 C179.05644,34.7478089 180.794953,34.2794439 182.206217,33.3352202 C183.561699,32.4284657 184.231073,31.2144638 184.231073,29.6407576 C184.231073,28.1213817 183.660246,26.8530495 182.490701,25.7645694 C181.321155,24.6760892 179.465502,23.9922764 177.01113,23.7412328 C173.39651,23.3908958 170.503327,22.3024157 168.417111,20.5132617 C166.301145,18.6960057 165.222709,16.3766625 165.222709,13.6339174 C165.187375,11.8112346 165.772711,10.0313436 166.881269,8.59056379 C167.970861,7.19670973 169.469516,6.11759691 171.343763,5.38882107 C173.345395,4.64220716 175.466333,4.27323203 177.600551,4.30034095 C180.125579,4.30034095 182.28431,4.83053006 184.03398,5.87404714 C184.247807,5.99956895 184.463495,6.14382535 184.677322,6.28808175 C184.783307,6.35927322 184.89115,6.43233815 184.989697,6.50352962 L185.015728,6.52975806 C185.575618,7.00076754 185.898587,7.69828387 185.897071,8.43319317 C185.899046,9.10014775 185.63773,9.74052192 185.170714,10.2131852 C184.703697,10.6858485 184.069313,10.9520048 183.407371,10.9529965 C182.991492,10.9539579 182.582129,10.8489084 182.217373,10.6476226 C182.146717,10.6120269 182.083498,10.5670638 182.012842,10.5221008 C181.843639,10.4228074 181.665139,10.3235141 181.468046,10.2073596 C180.38775,9.57787708 178.987643,9.25376854 177.30863,9.25376854 C175.229851,9.25376854 173.543401,9.65843585 172.275309,10.4584032 C171.061138,11.2227747 170.473577,12.3112549 170.473577,13.7669331 C170.473577,15.1345587 171.009076,16.2492673 172.115403,17.1747564 C173.221729,18.1002455 175.309804,18.7484626 178.290378,19.0482161 C181.799014,19.4004266 184.563901,20.4870332 186.510664,22.2855546 C188.47602,24.1177982 189.468925,26.5458021 189.468925,29.503995 Z" id="Path" fill="#362F8A"></path>
            <path d="M216.890949,6.58408839 C214.265516,5.08157367 211.223582,4.31158171 207.863696,4.31158171 L199.868395,4.31158171 C199.186008,4.29745912 198.526422,4.55924395 198.036913,5.03848409 C197.539086,5.53016022 197.269206,6.2099724 197.293164,6.91194385 L197.293164,37.0746459 C197.284591,37.7669169 197.553743,38.4333602 198.039609,38.9229078 C198.525476,39.4124555 199.186908,39.6836465 199.873973,39.6752083 L207.869274,39.6752083 C211.234739,39.6752083 214.271094,38.9125099 216.896527,37.4099952 C219.496737,35.9327834 221.632551,33.7489779 223.060347,31.1076766 C224.521814,28.4342495 225.261844,25.359902 225.261844,21.9708133 C225.261844,18.5817247 224.518095,15.5167445 223.060347,12.8583051 C221.625094,10.2279322 219.488084,8.05461396 216.890949,6.58408839 L216.890949,6.58408839 Z M207.863696,35.0138402 L202.441766,35.0138402 L202.441766,8.99523109 L207.863696,8.99523109 C210.249271,8.99523109 212.409862,9.55726902 214.287828,10.6494961 C216.156373,11.7394902 217.682825,13.3372357 218.692681,15.2600805 C219.741367,17.2309602 220.273148,19.4940996 220.273148,21.985801 C220.273148,24.4775025 219.739508,26.7518826 218.690822,28.7302561 C217.688348,30.6636614 216.161424,32.2703726 214.287828,33.3633221 C212.411721,34.4574226 210.249271,35.0138402 207.863696,35.0138402 Z" id="Shape" fill="#362F8A"></path>
            <path d="M246.828704,24.9945774 C250.435149,23.2735186 252.704901,19.5816986 252.628087,15.5617075 C252.628087,13.3847473 252.131634,11.4176146 251.153605,9.7165131 C250.178092,8.02048583 248.743859,6.63906414 247.01836,5.73353766 C245.167912,4.77015984 243.110122,4.28173775 241.027462,4.31158171 L233.069349,4.31158171 C232.386961,4.29745912 231.727376,4.55924395 231.237867,5.03848409 C230.739452,5.52976529 230.469464,6.20985001 230.494118,6.91194385 L230.494118,37.0746459 C230.498534,38.1330197 231.133844,39.0850102 232.104964,39.4884426 C233.076083,39.8918749 234.192694,39.6676852 234.936159,38.9200037 C235.410583,38.4261353 235.669624,37.761823 235.655736,37.0746459 L235.655736,26.2647831 L241.672665,26.2647831 L249.197545,38.4291573 C249.660825,39.2226515 250.515435,39.6998356 251.428792,39.675008 C252.100817,39.7064462 252.75619,39.4585652 253.24168,38.9893218 C253.68874,38.5453185 253.93484,37.9355682 253.92221,37.303208 C253.91635,36.7275704 253.748029,36.1654991 253.436914,35.6826653 L246.828704,24.9945774 Z M247.644969,15.5617075 C247.644969,17.2815436 247.022079,18.6997526 245.785596,19.7826124 C244.549114,20.8654721 242.942616,21.42751 241.018166,21.42751 L235.640861,21.42751 L235.640861,9.16384247 L241.018166,9.16384247 C242.938897,9.16384247 244.539817,9.76709651 245.7763,10.95487 C247.012782,12.1426435 247.644969,13.6919947 247.644969,15.5617075 L247.644969,15.5617075 Z" id="Shape" fill="#362F8A"></path>
            <path d="M322.47913,4.31158171 C321.797462,4.29641099 321.138288,4.55762346 320.649507,5.03661063 C320.151876,5.52841787 319.882032,6.20813968 319.905759,6.91007039 L319.905759,30.4070026 L301.140972,5.26142581 C300.893025,4.9834847 300.593655,4.75693814 300.25963,4.59447413 C299.923981,4.41580917 299.551436,4.31891927 299.171897,4.31158171 C298.494551,4.29385752 297.839738,4.55736111 297.360868,5.04035755 C296.874677,5.53814893 296.61369,6.21589139 296.639432,6.91381731 L296.639432,37.0371767 C296.61369,37.7351026 296.874677,38.4128451 297.360868,38.9106364 C298.39371,39.8922981 300.010498,39.8807388 301.02941,38.884408 C301.504795,38.3919242 301.764044,37.7277561 301.748987,37.0409236 L301.748987,13.5927013 L320.478445,38.7083028 C320.699276,39.0328439 321.015207,39.2797748 321.3821,39.4145971 C321.730804,39.5568762 322.102938,39.6318668 322.47913,39.6356654 C323.155994,39.6537612 323.810373,39.3901619 324.288299,38.9068895 C324.774603,38.4090428 325.036179,37.7315174 325.011595,37.0334298 L325.011595,6.91569077 C325.035958,6.21764085 324.774415,5.54020048 324.288299,5.04223101 C323.810315,4.55883809 323.156149,4.29464714 322.47913,4.31158171 Z" id="Path" fill="#362F8A"></path>
            <path d="M356.289958,35.4503563 C355.787513,35.0037734 355.133519,34.7695848 354.464054,34.7965188 L337.082641,34.7965188 L337.082641,24.2395731 L349.475358,24.2395731 C350.140493,24.2595281 350.787042,24.0168322 351.27709,23.5632541 C351.742767,23.1049715 352.005313,22.4768152 352.005313,21.8209366 C352.005313,21.165058 351.742767,20.5369016 351.27709,20.078619 C350.786623,19.6257297 350.140363,19.3831419 349.475358,19.4023 L337.082641,19.4023 L337.082641,9.15822209 L354.464054,9.15822209 C355.134009,9.18621156 355.788599,8.95113799 356.289958,8.50251118 C356.761704,8.05934418 357.020042,7.43217465 356.998379,6.78267513 C357.022959,6.11474842 356.767139,5.46729039 356.293676,4.99914144 C355.798132,4.53581881 355.139509,4.29101044 354.464054,4.31907555 L334.499972,4.31907555 C333.818305,4.30390483 333.159131,4.5651173 332.67035,5.04410447 C332.172718,5.53591171 331.902874,6.21563351 331.926601,6.91756423 L331.926601,37.0371767 C331.917026,37.7282736 332.18489,38.3939708 332.669417,38.8832266 C333.153943,39.3724823 333.814053,39.6438165 334.499972,39.6356654 L354.458476,39.6356654 C355.134665,39.6626851 355.7937,39.4172979 356.289958,38.953726 C356.762447,38.4858303 357.017571,37.8391078 356.9928,37.1720658 C357.015008,36.5219209 356.756624,35.893958 356.28438,35.4503563 L356.289958,35.4503563 Z" id="Path" fill="#362F8A"></path>
            <path d="M268.215206,35.4391155 L268.215206,35.4391155 C268.746801,34.2360838 270.055964,33.5879756 271.325936,33.8991316 C276.646866,35.1687068 282.15306,32.6944514 284.771059,27.8574502 C287.389059,23.020449 286.471615,17.0165542 282.53083,13.197032 C278.590044,9.37750972 272.600197,8.68666082 267.904713,11.5101047 C263.20923,14.3335486 260.968974,19.973245 262.434417,25.2812167 C262.788149,26.5463739 262.19546,27.8856949 261.025013,28.4660983 L261.025013,28.4660983 C259.379468,29.2791798 257.691158,28.4660983 257.204002,26.6919319 C255.732111,21.2887977 256.884379,15.5025651 260.311014,11.0897591 C264.650789,5.43565756 272.162653,3.00015988 278.979113,5.0197495 C288.109494,7.68779361 293.469965,17.1973036 291.067765,26.4650958 C288.665565,35.7328879 279.374695,41.387026 270.115484,39.2160104 C269.321985,39.036768 268.649462,38.5096956 268.281766,37.778882 C267.91407,37.0480685 267.889659,36.1899501 268.215206,35.4391155 L268.215206,35.4391155 Z" id="Path" fill="#362F8A"></path>
        </g>
    </g>
</svg>