<?xml version="1.0" encoding="UTF-8"?>
<svg width="42px" height="44px" viewBox="0 0 42 44" version="1.1" xmlns="http://www.w3.org/2000/svg" xmlns:xlink="http://www.w3.org/1999/xlink">
    <title>Logo/statsdronelogologo-square</title>
    <g id="Logo/statsdronelogologo-square" stroke="none" stroke-width="1" fill="none" fill-rule="evenodd">
        <g id="Statsdrone-Logomark-RGB" fill-rule="nonzero">
            <path d="M27.1070568,24.6316522 C27.0930572,24.6176526 27.0799325,24.6045279 27.0676828,24.5905282 C27.0191215,24.5402169 26.9668415,24.4811559 26.9112803,24.4175012 C25.2241024,22.4448614 25.2206025,19.5215572 26.8992494,17.5414801 C26.9548105,17.4758567 27.0073092,17.4167956 27.0560893,17.3664843 C27.4382161,16.9962658 27.6295192,16.4712908 27.5751705,15.9420188 C27.4918288,15.0974455 26.7876896,14.4267742 25.9391788,14.3821503 C25.4619505,14.3554989 24.9949143,14.5271941 24.6485851,14.8566076 C24.6345854,14.8706072 24.6214607,14.8837319 24.6074611,14.8962004 C24.5571498,14.9447617 24.4980887,14.9968229 24.4339965,15.0517278 C22.451732,16.7299372 19.5266778,16.7299372 17.5435383,15.0517278 C17.4779149,14.9968229 17.4208225,14.9449804 17.3705112,14.8964191 C17.3565116,14.8839506 17.3433869,14.870826 17.3293872,14.8568263 C16.9830158,14.5274807 16.51601,14.3557966 16.0387935,14.382369 C15.1913765,14.426118 14.485706,15.0976642 14.4028018,15.9422375 C14.3486085,16.4715323 14.5399789,16.9964708 14.9221017,17.3667031 C15.130128,17.5839166 15.4431516,17.9487827 15.788987,18.3650539 C17.046235,19.8787025 17.0453155,22.0736767 15.7867996,23.5862713 C15.4381205,24.0053861 15.1218157,24.3737522 14.9105083,24.5911845 C14.8982586,24.6051841 14.8851339,24.6183088 14.8711342,24.6323085 C14.2235989,25.3161161 14.2382412,26.39118 14.9041597,27.0570985 C15.5700782,27.723017 16.6451421,27.7376593 17.3289497,27.090124 C17.3429494,27.0761243 17.3560741,27.0629996 17.3700737,27.0505312 C17.3840734,27.0380627 17.3993855,27.0220944 17.4151351,27.0067822 C19.3945725,25.0483546 22.5816498,25.0483546 24.5610872,27.0067822 C24.5766181,27.0223131 24.5917115,27.036969 24.6061486,27.0505312 C24.6205858,27.0640934 24.6332729,27.0761243 24.6472726,27.090124 C25.3310803,27.7376593 26.4061441,27.723017 27.0720626,27.0570985 C27.7379811,26.39118 27.7526234,25.3161161 27.1050881,24.6323085 L27.1070568,24.6316522 Z" id="Path" fill="#362F8A"></path>
            <path d="M28.3797135,10.5746799 C26.6840046,7.2917594 27.7805718,3.20013968 30.8904653,1.20496922 C34.3722247,-1.02819548 38.990363,0.122839159 41.0365009,3.6660659 C41.9144623,5.19235694 42.2056484,6.98644908 41.8554811,8.71206878 C41.7784673,9.09389773 41.5322095,9.42008618 41.18608,9.59874464 C40.8399505,9.7774031 40.431413,9.78919429 40.0755554,9.63079654 L40.0755554,9.63079654 C39.5260111,9.38612488 39.2206404,8.79212619 39.3414482,8.2028311 C39.5682615,7.08977604 39.3809594,5.93220514 38.814711,4.94747239 C37.4783996,2.6331534 34.4398169,1.9021086 32.1854339,3.42216556 C30.282355,4.705322 29.6042464,7.23838569 30.610472,9.30071078 C31.6497281,11.431503 34.0631385,12.3784488 36.198743,11.6990277 C36.7674793,11.5176884 37.3865268,11.7646511 37.686207,12.2832948 L37.686207,12.2832948 C38.0937284,12.9889653 37.7502992,13.8978495 36.9735368,14.1445935 C33.710522,15.1807872 30.0316735,13.7729463 28.3797135,10.5746799 Z" id="Path" fill="#F16622"></path>
            <path d="M41.7977325,33.0721354 C42.5930883,36.7151098 40.4557337,40.4171452 36.9028822,41.5498053 C32.9254473,42.8185246 28.7246739,40.4888934 27.656106,36.5009587 C27.1988351,34.7837295 27.383549,32.958678 28.1756247,31.3678954 C28.3505799,31.0158904 28.675881,30.762348 29.0599518,30.6786435 C29.4440227,30.594939 29.8453258,30.6901252 30.1508894,30.9374059 L30.1508894,30.9374059 C30.6218565,31.3195002 30.7641009,31.9775169 30.4930061,32.5200238 C29.98139,33.5456165 29.8616092,34.7226578 30.1561393,35.8302874 C30.8543724,38.4353181 33.6263053,39.9426879 36.2199613,39.0486783 C38.409377,38.2946653 39.7325638,36.002877 39.2906994,33.7299008 C38.8341792,31.3814576 36.7289802,29.8279327 34.4697849,29.9324927 C33.867362,29.9602733 33.3294687,29.5571268 33.173285,28.9746096 L33.173285,28.9746096 C32.9604464,28.1801288 33.5326826,27.3838981 34.3545064,27.3464928 C37.8045479,27.1898716 41.02272,29.5230026 41.7977325,33.0721354 Z" id="Path" fill="#F16622"></path>
            <path d="M5.56923435,27.7227337 C9.19295915,26.8435987 12.9433371,28.8952053 14.1573702,32.4209325 C15.5166498,36.3681807 13.2850164,40.6214527 9.32311225,41.7816746 C7.61694736,42.2782799 5.7882329,42.1355635 4.17976798,41.3802781 C3.82381129,41.2135666 3.56282015,40.8942302 3.47030356,40.5122112 C3.37778697,40.1301921 3.46375638,39.7268296 3.70399825,39.4157319 L3.70399825,39.4157319 C4.07512922,38.9356373 4.73015605,38.7781579 5.27896013,39.0370848 C6.31621044,39.5251384 7.49594454,39.6177779 8.59666108,39.2976098 C11.1837547,38.5396594 12.6259386,35.7336023 11.6733054,33.161602 C10.8691998,30.9901233 8.54744352,29.7200916 6.28518577,30.2142359 C3.94767985,30.7245673 2.44337251,32.8649842 2.59977497,35.1211171 C2.64155521,35.7228838 2.25087717,36.2699643 1.67207867,36.4392727 L1.67207867,36.4392727 C0.882629031,36.6702671 0.073492364,36.1166243 0.0170562299,35.2961129 C-0.220281776,31.8504463 2.03891355,28.5793379 5.56923435,27.7227337 Z" id="Path" fill="#F16622"></path>
            <path d="M12.1827618,12.6514422 C9.42657849,15.1617564 5.15077573,15.1617564 2.39371746,12.6514422 C-0.69320783,9.84079146 -0.776768307,5.03825144 2.14369226,2.1188846 C3.4017131,0.864806864 5.07377904,0.112377188 6.84670343,0.00252957097 C7.23898397,-0.0220020408 7.62118666,0.132896539 7.88570346,0.423614067 C8.15022025,0.714331595 8.26843944,1.10942233 8.20707676,1.49764963 L8.20707676,1.49764963 C8.11176296,2.09625819 7.61359076,2.54842289 7.00857452,2.58546706 C5.8643258,2.65501363 4.78483213,3.13992238 3.97283549,3.94912155 C2.06581914,5.8561379 2.14719217,9.00999906 4.21761081,10.8096118 C5.96516227,12.3287937 8.61153572,12.3287937 10.3590872,10.8096118 C12.1648247,9.23989975 12.4575051,6.64011892 11.2373472,4.73594626 C10.9120738,4.22802105 10.9921344,3.56063095 11.4186865,3.13407878 L11.4186865,3.13407878 C12.0003287,2.55265535 12.9757113,2.64999674 13.4191069,3.34276123 C15.2810618,6.25162832 14.8689468,10.2056576 12.1827618,12.6514422 Z" id="Path" fill="#F16622"></path>
        </g>
    </g>
</svg>